<?xml version="1.0" encoding="UTF-8" standalone="no"?>
<!-- Created with Inkscape (http://www.inkscape.org/) -->

<svg
   xmlns:dc="http://purl.org/dc/elements/1.1/"
   xmlns:cc="http://creativecommons.org/ns#"
   xmlns:rdf="http://www.w3.org/1999/02/22-rdf-syntax-ns#"
   xmlns:svg="http://www.w3.org/2000/svg"
   xmlns="http://www.w3.org/2000/svg"
   xmlns:sodipodi="http://sodipodi.sourceforge.net/DTD/sodipodi-0.dtd"
   xmlns:inkscape="http://www.inkscape.org/namespaces/inkscape"
   width="210mm"
   height="297mm"
   viewBox="0 0 744.09448819 1052.3622047"
   id="svg2"
   version="1.1"
   inkscape:version="0.91 r13725"
   sodipodi:docname="combining_processes.svg">
  <sodipodi:namedview
     id="base"
     pagecolor="#ffffff"
     bordercolor="#666666"
     borderopacity="1.0"
     inkscape:pageopacity="0.0"
     inkscape:pageshadow="2"
     inkscape:zoom="1.979899"
     inkscape:cx="459.09178"
     inkscape:cy="786.01826"
     inkscape:document-units="px"
     inkscape:current-layer="content"
     showgrid="true"
     inkscape:window-width="1680"
     inkscape:window-height="1026"
     inkscape:window-x="0"
     inkscape:window-y="24"
     inkscape:window-maximized="1">
    <inkscape:grid
       id="grid37175"
       type="xygrid" />
  </sodipodi:namedview>
  <defs
     id="defs4">
    <marker
       inkscape:stockid="Arrow1Lstart"
       orient="auto"
       refY="0.0"
       refX="0.0"
       id="marker38327"
       style="overflow:visible"
       inkscape:isstock="true">
      <path
         id="path38329"
         d="M 0.0,0.0 L 5.0,-5.0 L -12.5,0.0 L 5.0,5.0 L 0.0,0.0 z "
         style="fill-rule:evenodd;stroke:#000000;stroke-width:1pt;stroke-opacity:1;fill:#000000;fill-opacity:1"
         transform="scale(0.8) translate(12.5,0)" />
    </marker>
    <marker
       inkscape:collect="always"
       inkscape:isstock="true"
       style="overflow:visible"
       id="Arrow1Lstart"
       refX="0.0"
       refY="0.0"
       orient="auto"
       inkscape:stockid="Arrow1Lstart">
      <path
         transform="scale(0.8) translate(12.5,0)"
         style="fill-rule:evenodd;stroke:#000000;stroke-width:1pt;stroke-opacity:1;fill:#000000;fill-opacity:1"
         d="M 0.0,0.0 L 5.0,-5.0 L -12.5,0.0 L 5.0,5.0 L 0.0,0.0 z "
         id="path37991" />
    </marker>
    <marker
       inkscape:stockid="Arrow1Lend"
       orient="auto"
       refY="0.0"
       refX="0.0"
       id="marker38267"
       style="overflow:visible;"
       inkscape:isstock="true">
      <path
         id="path38269"
         d="M 0.0,0.0 L 5.0,-5.0 L -12.5,0.0 L 5.0,5.0 L 0.0,0.0 z "
         style="fill-rule:evenodd;stroke:#000000;stroke-width:1pt;stroke-opacity:1;fill:#000000;fill-opacity:1"
         transform="scale(0.8) rotate(180) translate(12.5,0)" />
    </marker>
    <marker
       inkscape:collect="always"
       inkscape:isstock="true"
       style="overflow:visible;"
       id="Arrow1Lend"
       refX="0.0"
       refY="0.0"
       orient="auto"
       inkscape:stockid="Arrow1Lend">
      <path
         transform="scale(0.8) rotate(180) translate(12.5,0)"
         style="fill-rule:evenodd;stroke:#000000;stroke-width:1pt;stroke-opacity:1;fill:#000000;fill-opacity:1"
         d="M 0.0,0.0 L 5.0,-5.0 L -12.5,0.0 L 5.0,5.0 L 0.0,0.0 z "
         id="path37994" />
    </marker>
  </defs>
  <metadata
     id="metadata7">
    <rdf:RDF>
      <cc:Work
         rdf:about="">
        <dc:format>image/svg+xml</dc:format>
        <dc:type
           rdf:resource="http://purl.org/dc/dcmitype/StillImage" />
        <dc:title />
      </cc:Work>
    </rdf:RDF>
  </metadata>
  <g
     id="layer1"
     inkscape:groupmode="layer"
     inkscape:label="Calque 1">
    <text
       sodipodi:linespacing="125%"
       id="text3336"
       y="32.362206"
       x="14.285714"
       style="font-style:normal;font-weight:normal;font-size:40px;line-height:125%;font-family:sans-serif;letter-spacing:0px;word-spacing:0px;fill:#000000;fill-opacity:1;stroke:none;stroke-width:1px;stroke-linecap:butt;stroke-linejoin:miter;stroke-opacity:1"
       xml:space="preserve"><tspan
         y="32.362206"
         x="14.285714"
         id="tspan3338"
         sodipodi:role="line" /></text>
    <text
       sodipodi:linespacing="125%"
       id="text37149"
       y="91.70713"
       x="370.72598"
       style="font-style:normal;font-weight:normal;font-size:40px;line-height:125%;font-family:sans-serif;letter-spacing:0px;word-spacing:0px;fill:#000000;fill-opacity:1;stroke:none;stroke-width:1px;stroke-linecap:butt;stroke-linejoin:miter;stroke-opacity:1"
       xml:space="preserve"><tspan
         y="91.70713"
         x="370.72598"
         id="tspan37151"
         sodipodi:role="line" /></text>
    <text
       sodipodi:linespacing="125%"
       id="text37153"
       y="82.022232"
       x="336.42456"
       style="font-style:normal;font-weight:normal;font-size:12.5px;line-height:125%;font-family:sans-serif;letter-spacing:0px;word-spacing:0px;fill:#000000;fill-opacity:1;stroke:none;stroke-width:1px;stroke-linecap:butt;stroke-linejoin:miter;stroke-opacity:1"
       xml:space="preserve"><tspan
         y="82.022232"
         x="336.42456"
         id="tspan37155"
         sodipodi:role="line">Translation</tspan></text>
    <text
       sodipodi:linespacing="125%"
       id="text37157"
       y="140.81068"
       x="347.39563"
       style="font-style:normal;font-weight:normal;font-size:12.5px;line-height:125%;font-family:sans-serif;letter-spacing:0px;word-spacing:0px;fill:#000000;fill-opacity:1;stroke:none;stroke-width:1px;stroke-linecap:butt;stroke-linejoin:miter;stroke-opacity:1"
       xml:space="preserve"><tspan
         y="140.81068"
         x="347.39563"
         id="tspan37159"
         sodipodi:role="line">Folding</tspan></text>
    <text
       sodipodi:linespacing="125%"
       id="text37161"
       y="192.99818"
       x="329.17358"
       style="font-style:normal;font-weight:normal;font-size:12.5px;line-height:125%;font-family:sans-serif;letter-spacing:0px;word-spacing:0px;fill:#000000;fill-opacity:1;stroke:none;stroke-width:1px;stroke-linecap:butt;stroke-linejoin:miter;stroke-opacity:1"
       xml:space="preserve"><tspan
         y="192.99818"
         x="329.17358"
         id="tspan37163"
         sodipodi:role="line">Translocation</tspan><tspan
         id="tspan37165"
         y="208.62318"
         x="329.17358"
         sodipodi:role="line">to periplasm</tspan></text>
    <text
       sodipodi:linespacing="125%"
       id="text37167"
       y="104.8391"
       x="156.12694"
       style="font-style:normal;font-weight:normal;font-size:12.5px;line-height:125%;font-family:sans-serif;letter-spacing:0px;word-spacing:0px;fill:#000000;fill-opacity:1;stroke:none;stroke-width:1px;stroke-linecap:butt;stroke-linejoin:miter;stroke-opacity:1"
       xml:space="preserve"><tspan
         y="104.8391"
         x="156.12694"
         id="tspan37169"
         sodipodi:role="line">Protein A</tspan></text>
    <text
       sodipodi:linespacing="125%"
       id="text37171"
       y="166.4584"
       x="157.13708"
       style="font-style:normal;font-weight:normal;font-size:12.5px;line-height:125%;font-family:sans-serif;letter-spacing:0px;word-spacing:0px;fill:#000000;fill-opacity:1;stroke:none;stroke-width:1px;stroke-linecap:butt;stroke-linejoin:miter;stroke-opacity:1"
       xml:space="preserve"><tspan
         y="166.4584"
         x="157.13708"
         id="tspan37173"
         sodipodi:role="line">Protein B</tspan></text>
    <rect
       style="fill:none;stroke:#000000"
       y="172.3622"
       x="320"
       height="50"
       width="100"
       id="rect37177" />
    <rect
       id="rect37179"
       width="100"
       height="50"
       x="320"
       y="112.3622"
       style="fill:none;stroke:#000000" />
    <rect
       style="fill:none;stroke:#000000"
       y="52.362198"
       x="320"
       height="50"
       width="100"
       id="rect37181" />
    <path
       sodipodi:nodetypes="ccc"
       inkscape:connector-curvature="0"
       id="path37183"
       d="M 320,72.362205 225.45686,102.3622 320,132.3622"
       style="fill:none;fill-rule:evenodd;stroke:#000000;stroke-width:1px;stroke-linecap:butt;stroke-linejoin:miter;stroke-opacity:1;marker-start:url(#marker38327);marker-end:url(#marker38267)" />
    <path
       sodipodi:nodetypes="ccc"
       inkscape:connector-curvature="0"
       id="path37185"
       d="M 320,82.362205 227.47717,162.3622 320,202.3622"
       style="fill:none;fill-rule:evenodd;stroke:#000000;stroke-width:1px;stroke-linecap:butt;stroke-linejoin:miter;stroke-opacity:1;marker-start:url(#Arrow1Lstart);marker-end:url(#Arrow1Lend)" />
    <text
       sodipodi:linespacing="125%"
       id="text38379"
       y="77.31144"
       x="232.32487"
       style="font-style:normal;font-weight:normal;font-size:12.5px;line-height:125%;font-family:sans-serif;letter-spacing:0px;word-spacing:0px;fill:#000000;fill-opacity:1;stroke:none;stroke-width:1px;stroke-linecap:butt;stroke-linejoin:miter;stroke-opacity:1"
       xml:space="preserve"><tspan
         y="77.31144"
         x="232.32487"
         id="tspan38381"
         sodipodi:role="line">input_of</tspan></text>
    <path
       inkscape:connector-curvature="0"
       id="path38383"
       d="m 450,122.48404 30,0"
       style="fill:none;fill-rule:evenodd;stroke:#000000;stroke-width:1px;stroke-linecap:butt;stroke-linejoin:miter;stroke-opacity:1" />
    <path
       style="fill:none;fill-rule:evenodd;stroke:#000000;stroke-width:1px;stroke-linecap:butt;stroke-linejoin:miter;stroke-opacity:1"
       d="m 451.01015,152.38251 30,0"
       id="path38385"
       inkscape:connector-curvature="0" />
    <path
       inkscape:connector-curvature="0"
       id="path38387"
       d="m 475,162.3622 15,-25 -15,-25"
       style="fill:none;fill-rule:evenodd;stroke:#000000;stroke-width:1px;stroke-linecap:butt;stroke-linejoin:miter;stroke-opacity:1" />
    <flowRoot
       style="fill:black;stroke:none;stroke-opacity:1;stroke-width:1px;stroke-linejoin:miter;stroke-linecap:butt;fill-opacity:1;font-family:sans-serif;font-style:normal;font-weight:normal;font-size:12.5px;line-height:125%;letter-spacing:0px;word-spacing:0px"
       id="flowRoot38389"
       xml:space="preserve"><flowRegion
         id="flowRegion38391"><rect
           y="42.362206"
           x="530"
           height="140"
           width="30"
           id="rect38393" /></flowRegion><flowPara
         id="flowPara38395" /></flowRoot>    <rect
       y="42.362206"
       x="520"
       height="180"
       width="40"
       id="rect38397"
       style="fill:none;stroke:#000000" />
    <flowRoot
       style="fill:black;stroke:none;stroke-opacity:1;stroke-width:1px;stroke-linejoin:miter;stroke-linecap:butt;fill-opacity:1;font-family:sans-serif;font-style:normal;font-weight:normal;font-size:12.5px;line-height:125%;letter-spacing:0px;word-spacing:0px"
       id="flowRoot38399"
       xml:space="preserve"><flowRegion
         id="flowRegion38401"><rect
           y="92.362206"
           x="590"
           height="60"
           width="30"
           id="rect38403" /></flowRegion><flowPara
         id="flowPara38405" /></flowRoot>    <rect
       y="67.915497"
       x="631.33502"
       height="60.000004"
       width="76.664978"
       id="rect38407"
       style="fill:none;stroke:#000000" />
    <rect
       y="172.07793"
       x="645.35535"
       height="50"
       width="64.644653"
       id="rect38409"
       style="fill:none;stroke:#000000" />
    <text
       sodipodi:linespacing="125%"
       id="text38411"
       y="82.252342"
       x="639.76636"
       style="font-style:normal;font-weight:normal;font-size:12.5px;line-height:125%;font-family:sans-serif;letter-spacing:0px;word-spacing:0px;fill:#000000;fill-opacity:1;stroke:none;stroke-width:1px;stroke-linecap:butt;stroke-linejoin:miter;stroke-opacity:1"
       xml:space="preserve"><tspan
         y="82.252342"
         x="639.76636"
         id="tspan38413"
         sodipodi:role="line">100</tspan></text>
    <text
       sodipodi:linespacing="125%"
       id="text38415"
       y="82.252342"
       x="678"
       style="font-style:normal;font-weight:normal;font-size:12.5px;line-height:125%;font-family:sans-serif;letter-spacing:0px;word-spacing:0px;fill:#000000;fill-opacity:1;stroke:none;stroke-width:1px;stroke-linecap:butt;stroke-linejoin:miter;stroke-opacity:1"
       xml:space="preserve"><tspan
         y="82.252342"
         x="678"
         id="tspan38417"
         sodipodi:role="line">50</tspan></text>
    <text
       sodipodi:linespacing="125%"
       id="text38419"
       y="189.45357"
       x="574.94922"
       style="font-style:normal;font-weight:normal;font-size:12.5px;line-height:125%;font-family:sans-serif;letter-spacing:0px;word-spacing:0px;fill:#000000;fill-opacity:1;stroke:none;stroke-width:1px;stroke-linecap:butt;stroke-linejoin:miter;stroke-opacity:1"
       xml:space="preserve"><tspan
         y="189.45357"
         x="574.94922"
         id="tspan38421"
         sodipodi:role="line">cytosol</tspan></text>
    <text
       sodipodi:linespacing="125%"
       id="text38423"
       y="211.37234"
       x="575.95941"
       style="font-style:normal;font-weight:normal;font-size:12.5px;line-height:125%;font-family:sans-serif;letter-spacing:0px;word-spacing:0px;fill:#000000;fill-opacity:1;stroke:none;stroke-width:1px;stroke-linecap:butt;stroke-linejoin:miter;stroke-opacity:1"
       xml:space="preserve"><tspan
         y="211.37234"
         x="575.95941"
         id="tspan38425"
         sodipodi:role="line">periplasm</tspan></text>
    <text
       inkscape:transform-center-y="-11.111678"
       inkscape:transform-center-x="17.172593"
       transform="matrix(0,-1,1,0,0,0)"
       sodipodi:linespacing="125%"
       id="text38427"
       y="512.03271"
       x="-168.40985"
       style="font-style:normal;font-weight:normal;font-size:12.5px;line-height:125%;font-family:sans-serif;letter-spacing:0px;word-spacing:0px;fill:#000000;fill-opacity:1;stroke:none;stroke-width:1px;stroke-linecap:butt;stroke-linejoin:miter;stroke-opacity:1"
       xml:space="preserve"><tspan
         y="512.03271"
         x="-168.40985"
         id="tspan38429"
         sodipodi:role="line">metabolites</tspan></text>
    <text
       sodipodi:linespacing="125%"
       id="text38431"
       y="19.230223"
       x="539.76129"
       style="font-style:normal;font-weight:normal;font-size:12.5px;line-height:125%;font-family:sans-serif;text-align:center;letter-spacing:0px;word-spacing:0px;text-anchor:middle;fill:#000000;fill-opacity:1;stroke:none;stroke-width:1px;stroke-linecap:butt;stroke-linejoin:miter;stroke-opacity:1"
       xml:space="preserve"><tspan
         style="-inkscape-font-specification:'sans-serif Bold';font-family:sans-serif;font-weight:bold;font-style:normal;font-stretch:normal;font-variant:normal"
         y="19.230223"
         x="539.76129"
         id="tspan38433"
         sodipodi:role="line">production</tspan><tspan
         style="-inkscape-font-specification:'sans-serif Bold';font-family:sans-serif;font-weight:bold;font-style:normal;font-stretch:normal;font-variant:normal"
         id="tspan38459"
         y="34.855225"
         x="539.76129"
         sodipodi:role="line">(and degradation)</tspan></text>
    <text
       sodipodi:linespacing="125%"
       id="text38435"
       y="57.412968"
       x="589.71576"
       style="font-style:normal;font-weight:normal;font-size:12.5px;line-height:125%;font-family:sans-serif;letter-spacing:0px;word-spacing:0px;fill:#000000;fill-opacity:1;stroke:none;stroke-width:1px;stroke-linecap:butt;stroke-linejoin:miter;stroke-opacity:1"
       xml:space="preserve"><tspan
         style="font-style:normal;font-variant:normal;font-weight:bold;font-stretch:normal;font-family:sans-serif;-inkscape-font-specification:'sans-serif Bold'"
         y="57.412968"
         x="589.71576"
         id="tspan38437"
         sodipodi:role="line">machinery costs</tspan></text>
    <text
       sodipodi:linespacing="125%"
       id="text38439"
       y="163.49419"
       x="623.03046"
       style="font-style:normal;font-weight:normal;font-size:12.5px;line-height:125%;font-family:sans-serif;letter-spacing:0px;word-spacing:0px;fill:#000000;fill-opacity:1;stroke:none;stroke-width:1px;stroke-linecap:butt;stroke-linejoin:miter;stroke-opacity:1"
       xml:space="preserve"><tspan
         style="font-style:normal;font-variant:normal;font-weight:bold;font-stretch:normal;font-family:sans-serif;-inkscape-font-specification:'sans-serif Bold'"
         y="163.49419"
         x="623.03046"
         id="tspan38441"
         sodipodi:role="line">weight</tspan></text>
    <text
       sodipodi:linespacing="125%"
       id="text38443"
       y="190.55525"
       x="651.76636"
       style="font-style:normal;font-weight:normal;font-size:12.5px;line-height:125%;font-family:sans-serif;letter-spacing:0px;word-spacing:0px;fill:#000000;fill-opacity:1;stroke:none;stroke-width:1px;stroke-linecap:butt;stroke-linejoin:miter;stroke-opacity:1"
       xml:space="preserve"><tspan
         y="190.55525"
         x="651.76636"
         id="tspan38445"
         sodipodi:role="line">100</tspan></text>
    <text
       sodipodi:linespacing="125%"
       id="text38447"
       y="212.47403"
       x="660"
       style="font-style:normal;font-weight:normal;font-size:12.5px;line-height:125%;font-family:sans-serif;letter-spacing:0px;word-spacing:0px;fill:#000000;fill-opacity:1;stroke:none;stroke-width:1px;stroke-linecap:butt;stroke-linejoin:miter;stroke-opacity:1"
       xml:space="preserve"><tspan
         y="212.47403"
         x="660"
         id="tspan38449"
         sodipodi:role="line">0</tspan></text>
    <text
       sodipodi:linespacing="125%"
       id="text38451"
       y="190.55525"
       x="688.48523"
       style="font-style:normal;font-weight:normal;font-size:12.5px;line-height:125%;font-family:sans-serif;letter-spacing:0px;word-spacing:0px;fill:#000000;fill-opacity:1;stroke:none;stroke-width:1px;stroke-linecap:butt;stroke-linejoin:miter;stroke-opacity:1"
       xml:space="preserve"><tspan
         y="190.55525"
         x="688.48523"
         id="tspan38453"
         sodipodi:role="line">0</tspan></text>
    <text
       sodipodi:linespacing="125%"
       id="text38455"
       y="212.47403"
       x="684.43555"
       style="font-style:normal;font-weight:normal;font-size:12.5px;line-height:125%;font-family:sans-serif;letter-spacing:0px;word-spacing:0px;fill:#000000;fill-opacity:1;stroke:none;stroke-width:1px;stroke-linecap:butt;stroke-linejoin:miter;stroke-opacity:1"
       xml:space="preserve"><tspan
         y="212.47403"
         x="684.43555"
         id="tspan38457"
         sodipodi:role="line">50</tspan></text>
    <text
       sodipodi:linespacing="125%"
       id="text38461"
       y="102.45374"
       x="639.76636"
       style="font-style:normal;font-weight:normal;font-size:12.5px;line-height:125%;font-family:sans-serif;letter-spacing:0px;word-spacing:0px;fill:#000000;fill-opacity:1;stroke:none;stroke-width:1px;stroke-linecap:butt;stroke-linejoin:miter;stroke-opacity:1"
       xml:space="preserve"><tspan
         y="102.45374"
         x="639.76636"
         id="tspan38463"
         sodipodi:role="line">100</tspan></text>
    <text
       sodipodi:linespacing="125%"
       id="text38465"
       y="122.61244"
       x="648"
       style="font-style:normal;font-weight:normal;font-size:12.5px;line-height:125%;font-family:sans-serif;letter-spacing:0px;word-spacing:0px;fill:#000000;fill-opacity:1;stroke:none;stroke-width:1px;stroke-linecap:butt;stroke-linejoin:miter;stroke-opacity:1"
       xml:space="preserve"><tspan
         y="122.61244"
         x="648"
         id="tspan38467"
         sodipodi:role="line">0</tspan></text>
    <text
       sodipodi:linespacing="125%"
       id="text38469"
       y="102.45374"
       x="682.04968"
       style="font-style:normal;font-weight:normal;font-size:12.5px;line-height:125%;font-family:sans-serif;letter-spacing:0px;word-spacing:0px;fill:#000000;fill-opacity:1;stroke:none;stroke-width:1px;stroke-linecap:butt;stroke-linejoin:miter;stroke-opacity:1"
       xml:space="preserve"><tspan
         y="102.45374"
         x="682.04968"
         id="tspan38471"
         sodipodi:role="line">0</tspan></text>
    <text
       sodipodi:linespacing="125%"
       id="text38473"
       y="122.61244"
       x="678"
       style="font-style:normal;font-weight:normal;font-size:12.5px;line-height:125%;font-family:sans-serif;letter-spacing:0px;word-spacing:0px;fill:#000000;fill-opacity:1;stroke:none;stroke-width:1px;stroke-linecap:butt;stroke-linejoin:miter;stroke-opacity:1"
       xml:space="preserve"><tspan
         y="122.61244"
         x="678"
         id="tspan38475"
         sodipodi:role="line">50</tspan></text>
    <text
       sodipodi:linespacing="125%"
       id="text38477"
       y="82.362206"
       x="588"
       style="font-style:normal;font-weight:normal;font-size:12.5px;line-height:125%;font-family:sans-serif;letter-spacing:0px;word-spacing:0px;fill:#000000;fill-opacity:1;stroke:none;stroke-width:1px;stroke-linecap:butt;stroke-linejoin:miter;stroke-opacity:1"
       xml:space="preserve"><tspan
         y="82.362206"
         x="588"
         id="tspan38479"
         sodipodi:role="line">rib.</tspan></text>
    <text
       sodipodi:linespacing="125%"
       id="text38481"
       y="101.35205"
       x="587.8985"
       style="font-style:normal;font-weight:normal;font-size:12.5px;line-height:125%;font-family:sans-serif;letter-spacing:0px;word-spacing:0px;fill:#000000;fill-opacity:1;stroke:none;stroke-width:1px;stroke-linecap:butt;stroke-linejoin:miter;stroke-opacity:1"
       xml:space="preserve"><tspan
         y="101.35205"
         x="587.8985"
         id="tspan38483"
         sodipodi:role="line">chap.</tspan></text>
    <text
       sodipodi:linespacing="125%"
       id="text38485"
       y="122.3622"
       x="588"
       style="font-style:normal;font-weight:normal;font-size:12.5px;line-height:125%;font-family:sans-serif;letter-spacing:0px;word-spacing:0px;fill:#000000;fill-opacity:1;stroke:none;stroke-width:1px;stroke-linecap:butt;stroke-linejoin:miter;stroke-opacity:1"
       xml:space="preserve"><tspan
         y="122.3622"
         x="588"
         id="tspan38487"
         sodipodi:role="line">trans.</tspan></text>
    <text
       sodipodi:linespacing="125%"
       id="text38489"
       y="240.34189"
       x="528.06091"
       style="font-style:normal;font-weight:normal;font-size:12.5px;line-height:125%;font-family:sans-serif;letter-spacing:0px;word-spacing:0px;fill:#000000;fill-opacity:1;stroke:none;stroke-width:1px;stroke-linecap:butt;stroke-linejoin:miter;stroke-opacity:1"
       xml:space="preserve"><tspan
         y="240.34189"
         x="528.06091"
         id="tspan38491"
         sodipodi:role="line">A</tspan></text>
    <text
       sodipodi:linespacing="125%"
       id="text38493"
       y="240.34189"
       x="546.04059"
       style="font-style:normal;font-weight:normal;font-size:12.5px;line-height:125%;font-family:sans-serif;letter-spacing:0px;word-spacing:0px;fill:#000000;fill-opacity:1;stroke:none;stroke-width:1px;stroke-linecap:butt;stroke-linejoin:miter;stroke-opacity:1"
       xml:space="preserve"><tspan
         y="240.34189"
         x="546.04059"
         id="tspan38495"
         sodipodi:role="line">B</tspan></text>
    <text
       sodipodi:linespacing="125%"
       id="text38497"
       y="142.3622"
       x="648"
       style="font-style:normal;font-weight:normal;font-size:12.5px;line-height:125%;font-family:sans-serif;letter-spacing:0px;word-spacing:0px;fill:#000000;fill-opacity:1;stroke:none;stroke-width:1px;stroke-linecap:butt;stroke-linejoin:miter;stroke-opacity:1"
       xml:space="preserve"><tspan
         y="142.3622"
         x="648"
         id="tspan38499"
         sodipodi:role="line">A</tspan></text>
    <text
       sodipodi:linespacing="125%"
       id="text38501"
       y="142.3622"
       x="678"
       style="font-style:normal;font-weight:normal;font-size:12.5px;line-height:125%;font-family:sans-serif;letter-spacing:0px;word-spacing:0px;fill:#000000;fill-opacity:1;stroke:none;stroke-width:1px;stroke-linecap:butt;stroke-linejoin:miter;stroke-opacity:1"
       xml:space="preserve"><tspan
         y="142.3622"
         x="678"
         id="tspan38503"
         sodipodi:role="line">B</tspan></text>
    <text
       sodipodi:linespacing="125%"
       id="text38505"
       y="240.3622"
       x="660"
       style="font-style:normal;font-weight:normal;font-size:12.5px;line-height:125%;font-family:sans-serif;letter-spacing:0px;word-spacing:0px;fill:#000000;fill-opacity:1;stroke:none;stroke-width:1px;stroke-linecap:butt;stroke-linejoin:miter;stroke-opacity:1"
       xml:space="preserve"><tspan
         y="240.3622"
         x="660"
         id="tspan38507"
         sodipodi:role="line">A</tspan></text>
    <text
       sodipodi:linespacing="125%"
       id="text38509"
       y="240.3622"
       x="688"
       style="font-style:normal;font-weight:normal;font-size:12.5px;line-height:125%;font-family:sans-serif;letter-spacing:0px;word-spacing:0px;fill:#000000;fill-opacity:1;stroke:none;stroke-width:1px;stroke-linecap:butt;stroke-linejoin:miter;stroke-opacity:1"
       xml:space="preserve"><tspan
         y="240.3622"
         x="688"
         id="tspan38511"
         sodipodi:role="line">B</tspan></text>
    <text
       sodipodi:linespacing="125%"
       id="text38513"
       y="183.17441"
       x="428.88834"
       style="font-style:normal;font-variant:normal;font-weight:bold;font-stretch:normal;font-size:12.5px;line-height:125%;font-family:sans-serif;-inkscape-font-specification:'sans-serif Bold';letter-spacing:0px;word-spacing:0px;fill:#000000;fill-opacity:1;stroke:none;stroke-width:1px;stroke-linecap:butt;stroke-linejoin:miter;stroke-opacity:1"
       xml:space="preserve"><tspan
         y="183.17441"
         x="428.88834"
         id="tspan38515"
         sodipodi:role="line">pre-solver</tspan></text>
    <path
       inkscape:connector-curvature="0"
       id="path38949"
       d="M 532,52.362205 532,212.3622"
       style="fill:none;fill-rule:evenodd;stroke:#000000;stroke-width:1;stroke-linecap:butt;stroke-linejoin:miter;stroke-miterlimit:4;stroke-dasharray:1, 6;stroke-dashoffset:0;stroke-opacity:1" />
    <path
       inkscape:connector-curvature="0"
       id="path38951"
       d="M 548,52.362205 548,212.3622"
       style="fill:none;fill-rule:evenodd;stroke:#000000;stroke-width:1;stroke-linecap:butt;stroke-linejoin:miter;stroke-miterlimit:4;stroke-dasharray:1, 6;stroke-dashoffset:0;stroke-opacity:1" />
    <g
       id="g3542"
       transform="matrix(0.46784965,0,0,0.46784965,161.97242,126.3328)">
      <g
         word-spacing="normal"
         letter-spacing="normal"
         font-size-adjust="none"
         font-stretch="normal"
         font-weight="normal"
         font-variant="normal"
         font-style="normal"
         stroke-miterlimit="10.433"
         xml:space="preserve"
         transform="matrix(1.0629921,0,0,-1.0629921,-186.02362,789.27165)"
         id="content"
         style="font-style:normal;font-variant:normal;font-weight:normal;font-stretch:normal;letter-spacing:normal;word-spacing:normal;text-anchor:start;fill:none;fill-opacity:1;fill-rule:evenodd;stroke:#000000;stroke-linecap:butt;stroke-linejoin:miter;stroke-miterlimit:10.43299961;stroke-dasharray:none;stroke-dashoffset:0;stroke-opacity:1"><g
           id="g3728"
           transform="matrix(0.8,0,0,0.8,-171.69601,58.453698)"><path
             id="path3730"
             d="m 470.64,437.88 0,0.05 0,0.06 0,0.05 0,0.05 0,0.05 0,0.05 0,0.04 0,0.05 0,0.04 0,0.04 0,0.04 0,0.04 0,0.04 -0.01,0.04 0,0.03 0,0.04 -0.01,0.03 0,0.03 -0.01,0.06 -0.01,0.05 -0.02,0.05 -0.01,0.05 -0.02,0.04 -0.02,0.04 -0.03,0.04 -0.03,0.03 -0.03,0.02 -0.03,0.03 -0.04,0.02 -0.05,0.02 -0.02,0.01 -0.03,0.01 -0.02,0 -0.03,0.01 -0.03,0.01 -0.03,0 -0.03,0.01 -0.03,0 -0.03,0.01 -0.04,0 -0.04,0 -0.03,0 -0.04,0.01 -0.04,0 -0.04,0 -0.05,0 -0.04,0 -0.05,0 -0.05,0.01 -0.05,0 -0.05,0 -0.05,0 c -3.09,-3.19 -7.47,-3.19 -9.07,-3.19 l 0,-1.55 c 1,0 3.94,0 6.53,1.3 l 0,-25.81 c 0,-1.79 -0.15,-2.39 -4.63,-2.39 l -1.6,0 0,-1.54 16.14,0 0,1.54 -1.59,0 c -4.49,0 -4.64,0.55 -4.64,2.39 z"
             inkscape:connector-curvature="0"
             style="fill:#000000;stroke-width:0" /><path
             id="path3732"
             d="m 502.91,421.94 0,0.75 -0.01,0.74 -0.02,0.75 -0.03,0.74 -0.05,0.75 -0.06,0.74 -0.07,0.74 -0.1,0.73 -0.11,0.73 -0.14,0.73 -0.16,0.72 -0.19,0.72 -0.22,0.71 -0.24,0.71 -0.28,0.7 -0.15,0.35 -0.16,0.35 c -2.29,4.78 -6.37,5.58 -8.47,5.58 -2.99,0 -6.62,-1.3 -8.66,-5.93 -1.6,-3.44 -1.85,-7.32 -1.85,-11.31 0,-3.74 0.2,-8.22 2.24,-12.01 2.15,-4.03 5.78,-5.03 8.22,-5.03 l 0,1.1 c -1.94,0 -4.88,1.25 -5.78,6.03 -0.54,2.99 -0.54,7.57 -0.54,10.51 0,3.19 0,6.47 0.4,9.16 0.94,5.93 4.68,6.38 5.92,6.38 1.65,0 4.94,-0.9 5.88,-5.83 0.5,-2.79 0.5,-6.57 0.5,-9.71 0,-3.74 0,-7.13 -0.55,-10.31 -0.75,-4.73 -3.59,-6.23 -5.83,-6.23 l 0,0 0,-1.1 c 2.69,0 6.48,1.05 8.67,5.78 1.59,3.44 1.84,7.32 1.84,11.26 z"
             inkscape:connector-curvature="0"
             style="fill:#000000;stroke-width:0" /><path
             id="path3734"
             d="m 527.91,421.94 0,0.75 -0.01,0.74 -0.02,0.75 -0.03,0.74 -0.05,0.75 -0.06,0.74 -0.07,0.74 -0.1,0.73 -0.11,0.73 -0.14,0.73 -0.16,0.72 -0.19,0.72 -0.22,0.71 -0.24,0.71 -0.28,0.7 -0.15,0.35 -0.16,0.35 c -2.29,4.78 -6.37,5.58 -8.47,5.58 -2.98,0 -6.62,-1.3 -8.66,-5.93 -1.6,-3.44 -1.85,-7.32 -1.85,-11.31 0,-3.74 0.2,-8.22 2.24,-12.01 2.15,-4.03 5.78,-5.03 8.22,-5.03 l 0,1.1 c -1.94,0 -4.88,1.25 -5.78,6.03 -0.54,2.99 -0.54,7.57 -0.54,10.51 0,3.19 0,6.47 0.4,9.16 0.94,5.93 4.68,6.38 5.92,6.38 1.65,0 4.94,-0.9 5.88,-5.83 0.5,-2.79 0.5,-6.57 0.5,-9.71 0,-3.74 0,-7.13 -0.55,-10.31 -0.75,-4.73 -3.58,-6.23 -5.83,-6.23 l 0,0 0,-1.1 c 2.69,0 6.48,1.05 8.67,5.78 1.59,3.44 1.84,7.32 1.84,11.26 z"
             inkscape:connector-curvature="0"
             style="fill:#000000;stroke-width:0" /><path
             id="path3736"
             d="m 545.75,441.37 0.01,0.01 0,0.01 0.01,0.03 0,0.03 0.01,0.03 0,0.03 0.01,0.04 0,0.03 0.01,0.03 0,0.04 0.01,0.03 0,0.04 0,0.03 0.01,0.04 0,0.03 0,0.04 0,0.03 c 0,0.04 0,0.49 -0.55,0.49 -0.04,0 -2.03,-0.18 -2.27,-0.18 -0.66,-0.07 -1.29,-0.1 -1.96,-0.17 -0.55,-0.04 -0.97,-0.07 -0.97,-0.8 0,-0.49 0.49,-0.49 0.91,-0.49 1.67,0 1.67,-0.21 1.67,-0.53 0,-0.2 -0.18,-0.9 -0.31,-1.35 l -1.75,-7.05 c -0.87,-3.49 -1.04,-4.18 -1.04,-4.32 0,-0.49 0.52,-0.49 0.66,-0.49 l 0.56,0 c 3.1,0.49 7.53,2.13 11.26,5.44 4.74,4.22 5.44,8.75 5.44,8.82 0,0.63 -0.49,1.12 -1.19,1.12 -1.22,0 -1.46,-0.98 -1.78,-1.95 -1.39,-4.96 -6.06,-10.29 -11.99,-12.04 z"
             inkscape:connector-curvature="0"
             style="fill:#000000;stroke-width:0" /><path
             id="path3738"
             d="m 575.1,439.16 0,0.05 -0.01,0.04 -0.01,0.05 -0.01,0.04 -0.01,0.04 -0.01,0.04 -0.01,0.03 -0.02,0.04 -0.01,0.03 -0.01,0.03 -0.01,0.03 -0.02,0.02 -0.02,0.03 -0.01,0.02 -0.02,0.02 -0.02,0.02 -0.02,0.02 -0.02,0.02 -0.03,0.01 -0.02,0.02 -0.03,0.01 -0.03,0.01 -0.03,0.01 -0.03,0.01 -0.03,0.01 -0.04,0 -0.04,0.01 -0.04,0 -0.04,0.01 -0.04,0 -0.05,0 -0.05,0 c -0.6,0 -0.75,-0.2 -1,-0.57 l -9.76,-14.15 c -1.05,-1.52 -1.92,-1.91 -3.54,-1.99 -0.47,-0.02 -0.47,-0.67 -0.47,-0.7 0,-0.35 0.3,-0.42 0.4,-0.42 0.35,0 0.77,0.07 1.12,0.07 l 2.64,0 c 0.45,0 0.97,-0.07 1.42,-0.07 0.17,0 0.6,0 0.6,0.7 0,0.4 -0.37,0.42 -0.48,0.42 -0.2,0 -1.17,0.05 -1.17,0.65 0,0.3 0.3,0.72 0.48,0.97 l 1.81,2.67 c 0.13,0.14 0.15,0.17 0.63,0.17 l 7.55,0 -0.2,1.12 -7.08,0 5.56,8.07 1.52,-8.07 0.2,-1.12 c 0.04,-0.3 0.07,-0.42 0.14,-0.72 0.08,-0.45 0.57,-2.94 0.57,-3.19 0,-0.55 -1.56,-0.55 -1.69,-0.55 -0.37,0 -0.77,0 -0.77,-0.7 0,-0.24 0.18,-0.42 0.45,-0.42 0.52,0 1.12,0.07 1.67,0.07 l 3.36,0 c 0.5,0 1.07,-0.07 1.57,-0.07 0.42,0 0.6,0.3 0.6,0.7 0,0.42 -0.4,0.42 -0.75,0.42 -1.64,0 -1.67,0.18 -1.77,0.72 z"
             inkscape:connector-curvature="0"
             style="fill:#000000;stroke-width:0" /><polyline
             id="polyline3740"
             points="536,418 585.44,418 585.44,420.04 536,420.04 "
             style="fill:#000000;fill-rule:nonzero;stroke-width:0" /><path
             id="path3742"
             d="m 546.91,412.15 0.01,0.01 0,0 0,0 0,0.01 0,0.01 0.01,0 0,0.01 0,0 0,0.02 0.01,0.02 0.01,0.02 0,0.01 0.01,0.02 0,0.03 0.01,0.02 0,0.02 0.01,0.02 0.01,0.03 0.01,0.04 0.01,0.05 0,0.03 0.01,0.02 0,0.02 0.01,0.02 0,0.02 0.01,0.02 0,0.02 0,0.01 0.01,0.01 0,0.01 0,0 0,0.01 0,0.01 0,0 0,0.01 0,0 0,0 0,0.01 0,0 0,0 c 0,0.18 -0.14,0.49 -0.55,0.49 -0.7,0 -3.6,-0.28 -4.47,-0.35 -0.28,-0.03 -0.76,-0.07 -0.76,-0.8 0,-0.49 0.48,-0.49 0.9,-0.49 1.67,0 1.67,-0.24 1.67,-0.52 0,-0.25 -0.06,-0.46 -0.13,-0.77 l -4.92,-19.73 c -0.18,-0.63 -0.18,-0.7 -0.18,-0.77 0,-0.53 0.42,-1.12 1.19,-1.12 0.94,0 1.4,0.7 1.61,1.47 0.06,0.13 1.56,6.27 1.7,6.76 2.48,-0.24 4.47,-1.04 4.47,-2.86 0,-0.17 0,-0.35 -0.07,-0.7 -0.14,-0.52 -0.14,-0.7 -0.14,-1.08 0,-2.47 2.02,-3.59 3.69,-3.59 3.39,0 4.43,5.3 4.43,5.33 0,0.46 -0.45,0.46 -0.56,0.46 -0.48,0 -0.52,-0.17 -0.69,-0.84 -0.42,-1.5 -1.36,-3.97 -3.07,-3.97 -0.94,0 -1.22,0.87 -1.22,1.81 0,0.6 0,0.66 0.21,1.57 0.03,0.1 0.17,0.7 0.17,1.08 0,3.11 -4.18,3.59 -5.65,3.7 1.02,0.62 2.3,1.78 2.9,2.3 1.77,1.67 3.52,3.31 5.47,3.31 0.42,0 0.87,-0.1 1.15,-0.45 -1.5,-0.25 -1.81,-1.43 -1.81,-1.95 0,-0.77 0.59,-1.3 1.39,-1.3 0.95,0 1.99,0.77 1.99,2.24 0,1.15 -0.84,2.44 -2.68,2.44 -1.99,0 -3.81,-1.43 -5.58,-3.07 -1.47,-1.4 -2.62,-2.48 -4.05,-3.07 z"
             inkscape:connector-curvature="0"
             style="fill:#000000;stroke-width:0" /><path
             id="path3744"
             d="m 574.71,392.49 0.53,0.14 0.52,0.17 0.26,0.08 0.26,0.1 0.26,0.1 0.25,0.1 0.25,0.11 0.24,0.11 0.24,0.12 0.24,0.12 0.23,0.13 0.22,0.13 0.21,0.14 0.21,0.14 0.2,0.15 0.19,0.15 0.18,0.16 0.17,0.16 0.16,0.16 0.15,0.17 0.13,0.17 0.13,0.18 0.11,0.18 0.1,0.19 0.09,0.19 0.07,0.19 0.05,0.2 0.04,0.2 0.03,0.21 0.01,0.21 c 0,2.27 -3.06,3.96 -7,3.96 l -8.62,0 c -0.5,0 -0.87,0 -0.87,-0.7 0,-0.42 0.3,-0.42 0.92,-0.42 0.25,0 1.07,0 1.6,-0.15 0,-0.3 0,-0.35 -0.08,-0.62 l -3.26,-13.05 c -0.2,-0.75 -0.23,-0.95 -2.15,-0.95 -0.62,0 -1.01,0 -1.01,-0.7 0,-0.2 0.17,-0.42 0.44,-0.42 0.52,0 1.12,0.07 1.67,0.07 l 3.64,0 c 0.55,0 1.17,-0.07 1.69,-0.07 0.15,0 0.62,0 0.62,0.7 0,0.42 -0.35,0.42 -0.82,0.42 -0.05,0 -0.65,0 -1.07,0.05 -0.62,0.05 -0.65,0.08 -0.65,0.28 0,0.05 0,0.09 0.08,0.34 l 1.57,6.3 3.93,0 0.1,0.85 -3.83,0 1.54,6.13 c 0.2,0.77 0.2,0.82 1.24,0.82 l 2.85,0 c 2.78,0 4.65,-0.67 4.65,-2.64 0,-1.07 -0.6,-2.44 -1.82,-3.26 -0.22,-0.13 -1.64,-1.05 -4.63,-1.05 l -0.1,-0.85 c 1.82,0 3.59,-0.64 3.59,-2.19 0,-0.29 -0.23,-1.14 -0.38,-1.72 -0.14,-0.62 -0.34,-1.41 -0.34,-1.89 0,-2.39 2.54,-2.84 4.08,-2.84 2.47,0 3.64,2.39 3.64,2.96 0,0.43 -0.38,0.43 -0.53,0.43 -0.37,0 -0.42,-0.15 -0.54,-0.47 -0.43,-1.27 -1.52,-2.07 -2.44,-2.07 -0.65,0 -1.35,0.2 -1.35,1.79 0,0.55 0.2,1.95 0.27,2.57 0.11,0.72 0.11,0.82 0.11,0.97 0,1.94 -1.7,2.59 -2.47,2.86 z"
             inkscape:connector-curvature="0"
             style="fill:#000000;stroke-width:0" /><path
             id="path3746"
             d="m 623.38,417.46 13.89,0 c 0.7,0 1.64,0 1.64,0.99 0,1 -0.94,1 -1.64,1 l -13.89,0 0,13.95 c 0,0.69 0,1.64 -1,1.64 -1,0 -1,-0.95 -1,-1.64 l 0,-13.95 -13.95,0 c -0.7,0 -1.64,0 -1.64,-1 0,-0.99 0.94,-0.99 1.64,-0.99 l 13.95,0 0,-13.95 c 0,-0.7 0,-1.64 1,-1.64 1,0 1,0.94 1,1.64 z"
             inkscape:connector-curvature="0"
             style="fill:#000000;stroke-width:0" /><path
             id="path3748"
             d="m 674.37,416.01 -0.01,0.55 -0.04,0.55 -0.06,0.54 -0.08,0.53 -0.1,0.53 -0.13,0.51 -0.14,0.5 -0.17,0.5 -0.18,0.48 -0.2,0.47 -0.23,0.46 -0.24,0.44 -0.26,0.43 -0.28,0.41 -0.29,0.4 -0.31,0.38 -0.32,0.36 -0.34,0.35 -0.36,0.33 -0.37,0.3 -0.38,0.29 -0.4,0.27 -0.41,0.24 -0.42,0.22 -0.43,0.2 -0.45,0.17 -0.45,0.15 -0.47,0.13 -0.47,0.09 -0.49,0.07 -0.49,0.05 -0.5,0.01 c -2.39,0 -4.53,-0.8 -6.33,-2.54 l 0,9.71 c 1,-0.29 2.65,-0.64 4.24,-0.64 6.13,0 9.61,4.53 9.61,5.18 0,0.3 -0.15,0.55 -0.49,0.55 -0.05,0 -0.15,0 -0.4,-0.15 -1,-0.45 -3.44,-1.45 -6.78,-1.45 -1.99,0 -4.28,0.35 -6.62,1.4 -0.4,0.14 -0.5,0.14 -0.6,0.14 -0.5,0 -0.5,-0.39 -0.5,-1.19 l 0,-14.75 c 0,-0.89 0,-1.29 0.7,-1.29 0.35,0 0.45,0.15 0.65,0.45 0.55,0.8 2.39,3.48 6.42,3.48 2.59,0 3.84,-2.28 4.23,-3.18 0.8,-1.85 0.9,-3.79 0.9,-6.28 0,-1.74 0,-4.73 -1.19,-6.82 -1.2,-1.95 -3.04,-3.24 -5.33,-3.24 -3.64,0 -6.48,2.64 -7.32,5.58 0.14,-0.05 0.29,-0.1 0.84,-0.1 1.64,0 2.49,1.24 2.49,2.44 0,1.19 -0.85,2.44 -2.49,2.44 -0.7,0 -2.44,-0.35 -2.44,-2.64 0,-4.29 3.44,-9.12 9.02,-9.12 5.77,0 10.86,4.79 10.86,11.11 z"
             inkscape:connector-curvature="0"
             style="fill:#000000;stroke-width:0" /><path
             id="path3750"
             d="m 699.91,421.94 0,0.75 -0.01,0.74 -0.02,0.75 -0.03,0.74 -0.05,0.75 -0.06,0.74 -0.07,0.74 -0.1,0.73 -0.11,0.73 -0.14,0.73 -0.16,0.72 -0.19,0.72 -0.22,0.71 -0.24,0.71 -0.28,0.7 -0.15,0.35 -0.16,0.35 c -2.29,4.78 -6.37,5.58 -8.47,5.58 -2.98,0 -6.62,-1.3 -8.67,-5.93 -1.59,-3.44 -1.84,-7.32 -1.84,-11.31 0,-3.74 0.2,-8.22 2.24,-12.01 2.15,-4.03 5.78,-5.03 8.22,-5.03 l 0,1.1 c -1.94,0 -4.88,1.25 -5.78,6.03 -0.54,2.99 -0.54,7.57 -0.54,10.51 0,3.19 0,6.47 0.4,9.16 0.94,5.93 4.68,6.38 5.92,6.38 1.65,0 4.94,-0.9 5.88,-5.83 0.5,-2.79 0.5,-6.57 0.5,-9.71 0,-3.74 0,-7.13 -0.55,-10.31 -0.75,-4.73 -3.58,-6.23 -5.83,-6.23 l 0,0 0,-1.1 c 2.69,0 6.48,1.05 8.67,5.78 1.59,3.44 1.84,7.32 1.84,11.26 z"
             inkscape:connector-curvature="0"
             style="fill:#000000;stroke-width:0" /><path
             id="path3752"
             d="m 716.75,441.37 0.01,0.01 0,0.01 0.01,0.03 0,0.03 0.01,0.03 0,0.03 0.01,0.04 0,0.03 0.01,0.03 0,0.04 0.01,0.03 0,0.04 0,0.03 0.01,0.04 0,0.03 0,0.04 0,0.03 c 0,0.04 0,0.49 -0.55,0.49 -0.04,0 -2.03,-0.18 -2.27,-0.18 -0.66,-0.07 -1.29,-0.1 -1.96,-0.17 -0.55,-0.04 -0.97,-0.07 -0.97,-0.8 0,-0.49 0.49,-0.49 0.91,-0.49 1.67,0 1.67,-0.21 1.67,-0.53 0,-0.2 -0.18,-0.9 -0.31,-1.35 l -1.75,-7.05 c -0.87,-3.49 -1.04,-4.18 -1.04,-4.32 0,-0.49 0.52,-0.49 0.66,-0.49 l 0.56,0 c 3.1,0.49 7.53,2.13 11.26,5.44 4.74,4.22 5.44,8.75 5.44,8.82 0,0.63 -0.49,1.12 -1.19,1.12 -1.22,0 -1.46,-0.98 -1.78,-1.95 -1.39,-4.96 -6.06,-10.29 -11.99,-12.04 z"
             inkscape:connector-curvature="0"
             style="fill:#000000;stroke-width:0" /><path
             id="path3754"
             d="m 734.18,424.07 -0.02,-0.07 -0.02,-0.07 -0.02,-0.06 -0.01,-0.06 -0.02,-0.05 -0.02,-0.06 -0.02,-0.05 -0.02,-0.05 -0.03,-0.04 -0.02,-0.04 -0.03,-0.04 -0.03,-0.04 -0.04,-0.04 -0.04,-0.03 -0.04,-0.03 -0.05,-0.03 -0.05,-0.02 -0.06,-0.03 -0.06,-0.02 -0.07,-0.02 -0.04,-0.01 -0.04,0 -0.04,-0.01 -0.04,-0.01 -0.05,-0.01 -0.04,0 -0.05,-0.01 -0.05,-0.01 -0.05,0 -0.06,-0.01 -0.05,0 -0.06,-0.01 -0.06,0 -0.06,0 -0.07,-0.01 -0.06,0 -0.07,0 -0.08,0 -0.07,-0.01 -0.08,0 -0.08,0 -0.08,0 -0.08,0 -0.09,0 c -0.65,0 -1.04,0 -1.04,-0.7 0,-0.42 0.39,-0.42 0.82,-0.42 l 10.83,0 c 4.48,0 8.12,2.79 8.12,5.28 0,1.54 -1.45,3.21 -4.83,3.64 2.46,0.32 5.97,1.96 5.97,4.46 0,2.09 -2.46,3.63 -5.85,3.63 l -0.45,-1.12 c 2.47,0 3.64,-1.27 3.64,-2.59 0,-2.02 -2.69,-4.03 -6.18,-4.03 l -4.7,0 -0.23,-0.85 6.08,0 c 2.54,0 3.81,-1.47 3.81,-3.04 0,-2.42 -2.96,-4.26 -6.05,-4.26 l -4.81,0 c -0.2,0 -0.54,0 -0.79,0.05 0.02,0.2 0.02,0.25 0.07,0.45 l 1.69,6.8 0.23,0.85 1.44,5.8 c 0.2,0.77 0.2,0.82 1.24,0.82 l 4.56,0 0.45,1.12 -10.21,0 c -0.47,0 -0.87,0 -0.87,-0.7 0,-0.42 0.32,-0.42 0.92,-0.42 0.25,0 1.07,0 1.6,-0.15 0,-0.3 0,-0.35 -0.08,-0.62 z"
             inkscape:connector-curvature="0"
             style="fill:#000000;stroke-width:0" /><polyline
             id="polyline3756"
             points="708,418 757.56,418 757.56,420.04 708,420.04 "
             style="fill:#000000;fill-rule:nonzero;stroke-width:0" /><path
             id="path3758"
             d="m 718.91,412.15 0.01,0.01 0,0 0,0 0,0.01 0,0.01 0.01,0 0,0.01 0,0 0,0.02 0.01,0.02 0.01,0.02 0,0.01 0.01,0.02 0,0.03 0.01,0.02 0,0.02 0.01,0.02 0.01,0.03 0.01,0.04 0.01,0.05 0,0.03 0.01,0.02 0,0.02 0.01,0.02 0,0.02 0.01,0.02 0,0.02 0,0.01 0.01,0.01 0,0.01 0,0 0,0.01 0,0.01 0,0 0,0.01 0,0 0,0 0,0.01 0,0 0,0 c 0,0.18 -0.14,0.49 -0.55,0.49 -0.7,0 -3.6,-0.28 -4.47,-0.35 -0.28,-0.03 -0.76,-0.07 -0.76,-0.8 0,-0.49 0.48,-0.49 0.9,-0.49 1.67,0 1.67,-0.24 1.67,-0.52 0,-0.25 -0.06,-0.46 -0.13,-0.77 l -4.92,-19.73 c -0.18,-0.63 -0.18,-0.7 -0.18,-0.77 0,-0.53 0.42,-1.12 1.19,-1.12 0.94,0 1.4,0.7 1.61,1.47 0.06,0.13 1.56,6.27 1.7,6.76 2.48,-0.24 4.47,-1.04 4.47,-2.86 0,-0.17 0,-0.35 -0.07,-0.7 -0.14,-0.52 -0.14,-0.7 -0.14,-1.08 0,-2.47 2.02,-3.59 3.69,-3.59 3.39,0 4.43,5.3 4.43,5.33 0,0.46 -0.45,0.46 -0.56,0.46 -0.48,0 -0.52,-0.17 -0.69,-0.84 -0.42,-1.5 -1.36,-3.97 -3.07,-3.97 -0.94,0 -1.22,0.87 -1.22,1.81 0,0.6 0,0.66 0.21,1.57 0.03,0.1 0.17,0.7 0.17,1.08 0,3.11 -4.18,3.59 -5.65,3.7 1.02,0.62 2.3,1.78 2.9,2.3 1.77,1.67 3.52,3.31 5.47,3.31 0.42,0 0.87,-0.1 1.15,-0.45 -1.5,-0.25 -1.81,-1.43 -1.81,-1.95 0,-0.77 0.59,-1.3 1.39,-1.3 0.95,0 1.99,0.77 1.99,2.24 0,1.15 -0.84,2.44 -2.68,2.44 -1.99,0 -3.81,-1.43 -5.58,-3.07 -1.47,-1.4 -2.62,-2.48 -4.05,-3.07 z"
             inkscape:connector-curvature="0"
             style="fill:#000000;stroke-width:0" /><path
             id="path3760"
             d="m 746.71,392.49 0.53,0.14 0.52,0.17 0.26,0.08 0.26,0.1 0.26,0.1 0.25,0.1 0.25,0.11 0.24,0.11 0.24,0.12 0.24,0.12 0.23,0.13 0.22,0.13 0.21,0.14 0.21,0.14 0.2,0.15 0.19,0.15 0.18,0.16 0.17,0.16 0.16,0.16 0.15,0.17 0.13,0.17 0.13,0.18 0.11,0.18 0.1,0.19 0.09,0.19 0.07,0.19 0.05,0.2 0.04,0.2 0.03,0.21 0.01,0.21 c 0,2.27 -3.06,3.96 -7,3.96 l -8.62,0 c -0.5,0 -0.87,0 -0.87,-0.7 0,-0.42 0.3,-0.42 0.92,-0.42 0.25,0 1.07,0 1.6,-0.15 0,-0.3 0,-0.35 -0.08,-0.62 l -3.26,-13.05 c -0.2,-0.75 -0.23,-0.95 -2.15,-0.95 -0.62,0 -1.01,0 -1.01,-0.7 0,-0.2 0.17,-0.42 0.44,-0.42 0.52,0 1.12,0.07 1.67,0.07 l 3.64,0 c 0.55,0 1.17,-0.07 1.69,-0.07 0.15,0 0.62,0 0.62,0.7 0,0.42 -0.35,0.42 -0.82,0.42 -0.05,0 -0.65,0 -1.07,0.05 -0.62,0.05 -0.65,0.08 -0.65,0.28 0,0.05 0,0.09 0.08,0.34 l 1.57,6.3 3.93,0 0.1,0.85 -3.83,0 1.54,6.13 c 0.2,0.77 0.2,0.82 1.24,0.82 l 2.85,0 c 2.78,0 4.65,-0.67 4.65,-2.64 0,-1.07 -0.6,-2.44 -1.82,-3.26 -0.22,-0.13 -1.64,-1.05 -4.63,-1.05 l -0.1,-0.85 c 1.82,0 3.59,-0.64 3.59,-2.19 0,-0.29 -0.23,-1.14 -0.38,-1.72 -0.14,-0.62 -0.34,-1.41 -0.34,-1.89 0,-2.39 2.54,-2.84 4.08,-2.84 2.47,0 3.64,2.39 3.64,2.96 0,0.43 -0.38,0.43 -0.53,0.43 -0.37,0 -0.42,-0.15 -0.54,-0.47 -0.43,-1.27 -1.52,-2.07 -2.44,-2.07 -0.65,0 -1.35,0.2 -1.35,1.79 0,0.55 0.2,1.95 0.27,2.57 0.11,0.72 0.11,0.82 0.11,0.97 0,1.94 -1.7,2.59 -2.47,2.86 z"
             inkscape:connector-curvature="0"
             style="fill:#000000;stroke-width:0" /><path
             id="path3762"
             d="m 810.62,435.59 0.11,0.05 0.09,0.04 0.05,0.03 0.05,0.02 0.04,0.03 0.04,0.02 0.05,0.03 0.04,0.02 0.04,0.03 0.03,0.03 0.04,0.03 0.04,0.03 0.03,0.03 0.03,0.03 0.03,0.03 0.03,0.03 0.03,0.04 0.03,0.03 0.02,0.04 0.02,0.04 0.02,0.04 0.02,0.04 0.02,0.04 0.01,0.04 0.01,0.05 0.01,0.05 0.01,0.04 0.01,0.06 0,0.05 0,0.05 c 0,0.55 -0.4,1 -1,1 -0.25,0 -0.69,-0.2 -0.89,-0.3 l -27.55,-13 c -0.85,-0.4 -1,-0.75 -1,-1.15 0,-0.44 0.3,-0.79 1,-1.09 l 27.55,-12.95 c 0.64,-0.35 0.75,-0.35 0.89,-0.35 0.55,0 1,0.45 1,1 0,0.45 -0.2,0.74 -1.05,1.14 l -26.05,12.25 z"
             inkscape:connector-curvature="0"
             style="fill:#000000;stroke-width:0" /><path
             id="path3764"
             d="m 809.83,399.18 0.16,0 0.16,0 0.15,0 0.08,0.01 0.08,0 0.07,0.01 0.08,0.01 0.07,0.01 0.07,0.01 0.07,0.01 0.07,0.02 0.06,0.02 0.07,0.02 0.06,0.03 0.05,0.02 0.06,0.03 0.05,0.04 0.05,0.04 0.05,0.04 0.04,0.05 0.04,0.05 0.01,0.02 0.02,0.03 0.02,0.03 0.01,0.03 0.02,0.03 0.01,0.03 0.01,0.04 0.01,0.03 0.01,0.04 0.01,0.04 0,0.04 0.01,0.04 0,0.04 0.01,0.04 0,0.05 0,0.04 c 0,1 -1.05,1 -1.79,1 l -26.85,0 c -0.75,0 -1.8,0 -1.8,-1 0,-0.99 0.9,-0.99 1.75,-0.99 z"
             inkscape:connector-curvature="0"
             style="fill:#000000;stroke-width:0" /><path
             id="path3766"
             d="m 855.85,422.94 0.48,0.11 0.47,0.12 0.49,0.14 0.48,0.15 0.48,0.16 0.48,0.18 0.48,0.19 0.48,0.2 0.47,0.22 0.46,0.23 0.46,0.24 0.45,0.25 0.44,0.27 0.43,0.28 0.42,0.29 0.4,0.3 0.39,0.31 0.37,0.32 0.35,0.34 0.34,0.35 0.32,0.35 0.29,0.37 0.28,0.38 0.25,0.39 0.22,0.4 0.2,0.41 0.17,0.42 0.15,0.43 0.11,0.44 0.09,0.45 0.05,0.45 0.01,0.47 c 0,4.29 -4.48,7.47 -11.01,7.47 l -14.2,0 c -0.99,0 -1.44,0 -1.44,-0.99 0,-0.55 0.45,-0.55 1.4,-0.55 0.1,0 1.04,0 1.89,-0.1 0.9,-0.1 1.34,-0.15 1.34,-0.8 0,-0.2 -0.04,-0.35 -0.2,-0.94 l -6.67,-26.75 c -0.5,-1.95 -0.6,-2.35 -4.53,-2.35 -0.9,0 -1.35,0 -1.35,-0.99 0,-0.55 0.6,-0.55 0.7,-0.55 l 12.6,0 c 0.4,0 1,0 1,1 0,0.54 -0.45,0.54 -1.39,0.54 -1.85,0 -3.24,0 -3.24,0.9 0,0.3 0.09,0.55 0.14,0.85 l 3.3,13.2 5.92,0 -0.05,1.1 -5.58,0 3.24,13 c 0.3,1.19 0.45,1.69 1.39,1.84 0.45,0.05 2.05,0.05 3.04,0.05 3.54,0 9.07,0 9.07,-4.93 0,-1.7 -0.8,-5.14 -2.74,-7.08 -1.29,-1.29 -3.94,-2.88 -8.42,-2.88 l 0.05,-1.1 c 4.53,0 5.43,-2.79 5.43,-4.53 0,-0.75 -0.4,-2.3 -0.7,-3.44 -0.35,-1.4 -0.79,-3.24 -0.79,-4.23 0,-5.39 5.97,-5.39 6.62,-5.39 4.24,0 5.98,5.03 5.98,5.73 0,0.6 -0.55,0.6 -0.6,0.6 -0.45,0 -0.54,-0.35 -0.65,-0.7 -1.24,-3.68 -3.38,-4.53 -4.53,-4.53 -1.64,0 -1.99,1.1 -1.99,3.04 0,1.54 0.3,4.08 0.5,5.68 0.1,0.69 0.19,1.64 0.19,2.34 0,3.83 -3.33,5.38 -4.68,5.88 z"
             inkscape:connector-curvature="0"
             style="fill:#000000;stroke-width:0" /></g><g
           transform="matrix(0.8,0,0,-0.8,439.78027,671.49216)"
           id="g3915"><g
             style="font-style:normal;font-variant:normal;font-weight:normal;font-stretch:normal;letter-spacing:normal;word-spacing:normal;text-anchor:start;fill:none;fill-opacity:1;fill-rule:evenodd;stroke:#000000;stroke-linecap:butt;stroke-linejoin:miter;stroke-miterlimit:10.43299961;stroke-dasharray:none;stroke-dashoffset:0;stroke-opacity:1"
             id="g3917"
             transform="matrix(1.0629921,0,0,-1.0629921,-186.02362,789.27165)"
             xml:space="preserve"
             stroke-miterlimit="10.433"
             font-style="normal"
             font-variant="normal"
             font-weight="normal"
             font-stretch="normal"
             font-size-adjust="none"
             letter-spacing="normal"
             word-spacing="normal"><path
               style="fill:#000000;stroke-width:0"
               inkscape:connector-curvature="0"
               d="m 470.64,437.88 0,0.05 0,0.06 0,0.05 0,0.05 0,0.05 0,0.05 0,0.04 0,0.05 0,0.04 0,0.04 0,0.04 0,0.04 0,0.04 -0.01,0.04 0,0.03 0,0.04 -0.01,0.03 0,0.03 -0.01,0.06 -0.01,0.05 -0.02,0.05 -0.01,0.05 -0.02,0.04 -0.02,0.04 -0.03,0.04 -0.03,0.03 -0.03,0.02 -0.03,0.03 -0.04,0.02 -0.05,0.02 -0.02,0.01 -0.03,0.01 -0.02,0 -0.03,0.01 -0.03,0.01 -0.03,0 -0.03,0.01 -0.03,0 -0.03,0.01 -0.04,0 -0.04,0 -0.03,0 -0.04,0.01 -0.04,0 -0.04,0 -0.05,0 -0.04,0 -0.05,0 -0.05,0.01 -0.05,0 -0.05,0 -0.05,0 c -3.09,-3.19 -7.47,-3.19 -9.07,-3.19 l 0,-1.55 c 1,0 3.94,0 6.53,1.3 l 0,-25.81 c 0,-1.79 -0.15,-2.39 -4.63,-2.39 l -1.6,0 0,-1.54 16.14,0 0,1.54 -1.59,0 c -4.49,0 -4.64,0.55 -4.64,2.39 z"
               id="path3919" /><path
               style="fill:#000000;stroke-width:0"
               inkscape:connector-curvature="0"
               d="m 502.91,421.94 0,0.75 -0.01,0.74 -0.02,0.75 -0.03,0.74 -0.05,0.75 -0.06,0.74 -0.07,0.74 -0.1,0.73 -0.11,0.73 -0.14,0.73 -0.16,0.72 -0.19,0.72 -0.22,0.71 -0.24,0.71 -0.28,0.7 -0.15,0.35 -0.16,0.35 c -2.29,4.78 -6.37,5.58 -8.47,5.58 -2.99,0 -6.62,-1.3 -8.66,-5.93 -1.6,-3.44 -1.85,-7.32 -1.85,-11.31 0,-3.74 0.2,-8.22 2.24,-12.01 2.15,-4.03 5.78,-5.03 8.22,-5.03 l 0,1.1 c -1.94,0 -4.88,1.25 -5.78,6.03 -0.54,2.99 -0.54,7.57 -0.54,10.51 0,3.19 0,6.47 0.4,9.16 0.94,5.93 4.68,6.38 5.92,6.38 1.65,0 4.94,-0.9 5.88,-5.83 0.5,-2.79 0.5,-6.57 0.5,-9.71 0,-3.74 0,-7.13 -0.55,-10.31 -0.75,-4.73 -3.59,-6.23 -5.83,-6.23 l 0,0 0,-1.1 c 2.69,0 6.48,1.05 8.67,5.78 1.59,3.44 1.84,7.32 1.84,11.26 z"
               id="path3921" /><path
               style="fill:#000000;stroke-width:0"
               inkscape:connector-curvature="0"
               d="m 527.91,421.94 0,0.75 -0.01,0.74 -0.02,0.75 -0.03,0.74 -0.05,0.75 -0.06,0.74 -0.07,0.74 -0.1,0.73 -0.11,0.73 -0.14,0.73 -0.16,0.72 -0.19,0.72 -0.22,0.71 -0.24,0.71 -0.28,0.7 -0.15,0.35 -0.16,0.35 c -2.29,4.78 -6.37,5.58 -8.47,5.58 -2.98,0 -6.62,-1.3 -8.66,-5.93 -1.6,-3.44 -1.85,-7.32 -1.85,-11.31 0,-3.74 0.2,-8.22 2.24,-12.01 2.15,-4.03 5.78,-5.03 8.22,-5.03 l 0,1.1 c -1.94,0 -4.88,1.25 -5.78,6.03 -0.54,2.99 -0.54,7.57 -0.54,10.51 0,3.19 0,6.47 0.4,9.16 0.94,5.93 4.68,6.38 5.92,6.38 1.65,0 4.94,-0.9 5.88,-5.83 0.5,-2.79 0.5,-6.57 0.5,-9.71 0,-3.74 0,-7.13 -0.55,-10.31 -0.75,-4.73 -3.58,-6.23 -5.83,-6.23 l 0,0 0,-1.1 c 2.69,0 6.48,1.05 8.67,5.78 1.59,3.44 1.84,7.32 1.84,11.26 z"
               id="path3923" /><path
               style="fill:#000000;stroke-width:0"
               inkscape:connector-curvature="0"
               d="m 545.75,441.37 0.01,0.01 0,0.01 0.01,0.03 0,0.03 0.01,0.03 0,0.03 0.01,0.04 0,0.03 0.01,0.03 0,0.04 0.01,0.03 0,0.04 0,0.03 0.01,0.04 0,0.03 0,0.04 0,0.03 c 0,0.04 0,0.49 -0.55,0.49 -0.04,0 -2.03,-0.18 -2.27,-0.18 -0.66,-0.07 -1.29,-0.1 -1.96,-0.17 -0.55,-0.04 -0.97,-0.07 -0.97,-0.8 0,-0.49 0.49,-0.49 0.91,-0.49 1.67,0 1.67,-0.21 1.67,-0.53 0,-0.2 -0.18,-0.9 -0.31,-1.35 l -1.75,-7.05 c -0.87,-3.49 -1.04,-4.18 -1.04,-4.32 0,-0.49 0.52,-0.49 0.66,-0.49 l 0.56,0 c 3.1,0.49 7.53,2.13 11.26,5.44 4.74,4.22 5.44,8.75 5.44,8.82 0,0.63 -0.49,1.12 -1.19,1.12 -1.22,0 -1.46,-0.98 -1.78,-1.95 -1.39,-4.96 -6.06,-10.29 -11.99,-12.04 z"
               id="path3925" /><path
               style="fill:#000000;stroke-width:0"
               inkscape:connector-curvature="0"
               d="m 575.1,439.16 0,0.05 -0.01,0.04 -0.01,0.05 -0.01,0.04 -0.01,0.04 -0.01,0.04 -0.01,0.03 -0.02,0.04 -0.01,0.03 -0.01,0.03 -0.01,0.03 -0.02,0.02 -0.02,0.03 -0.01,0.02 -0.02,0.02 -0.02,0.02 -0.02,0.02 -0.02,0.02 -0.03,0.01 -0.02,0.02 -0.03,0.01 -0.03,0.01 -0.03,0.01 -0.03,0.01 -0.03,0.01 -0.04,0 -0.04,0.01 -0.04,0 -0.04,0.01 -0.04,0 -0.05,0 -0.05,0 c -0.6,0 -0.75,-0.2 -1,-0.57 l -9.76,-14.15 c -1.05,-1.52 -1.92,-1.91 -3.54,-1.99 -0.47,-0.02 -0.47,-0.67 -0.47,-0.7 0,-0.35 0.3,-0.42 0.4,-0.42 0.35,0 0.77,0.07 1.12,0.07 l 2.64,0 c 0.45,0 0.97,-0.07 1.42,-0.07 0.17,0 0.6,0 0.6,0.7 0,0.4 -0.37,0.42 -0.48,0.42 -0.2,0 -1.17,0.05 -1.17,0.65 0,0.3 0.3,0.72 0.48,0.97 l 1.81,2.67 c 0.13,0.14 0.15,0.17 0.63,0.17 l 7.55,0 -0.2,1.12 -7.08,0 5.56,8.07 1.52,-8.07 0.2,-1.12 c 0.04,-0.3 0.07,-0.42 0.14,-0.72 0.08,-0.45 0.57,-2.94 0.57,-3.19 0,-0.55 -1.56,-0.55 -1.69,-0.55 -0.37,0 -0.77,0 -0.77,-0.7 0,-0.24 0.18,-0.42 0.45,-0.42 0.52,0 1.12,0.07 1.67,0.07 l 3.36,0 c 0.5,0 1.07,-0.07 1.57,-0.07 0.42,0 0.6,0.3 0.6,0.7 0,0.42 -0.4,0.42 -0.75,0.42 -1.64,0 -1.67,0.18 -1.77,0.72 z"
               id="path3927" /><polyline
               style="fill:#000000;fill-rule:nonzero;stroke-width:0"
               points="536,418 586.28,418 586.28,420.04 536,420.04 "
               id="polyline3929" /><path
               style="fill:#000000;stroke-width:0"
               inkscape:connector-curvature="0"
               d="m 546.91,412.15 0.01,0.01 0,0 0,0 0,0.01 0,0.01 0.01,0 0,0.01 0,0 0,0.02 0.01,0.02 0.01,0.02 0,0.01 0.01,0.02 0,0.03 0.01,0.02 0,0.02 0.01,0.02 0.01,0.03 0.01,0.04 0.01,0.05 0,0.03 0.01,0.02 0,0.02 0.01,0.02 0,0.02 0.01,0.02 0,0.02 0,0.01 0.01,0.01 0,0.01 0,0 0,0.01 0,0.01 0,0 0,0.01 0,0 0,0 0,0.01 0,0 0,0 c 0,0.18 -0.14,0.49 -0.55,0.49 -0.7,0 -3.6,-0.28 -4.47,-0.35 -0.28,-0.03 -0.76,-0.07 -0.76,-0.8 0,-0.49 0.48,-0.49 0.9,-0.49 1.67,0 1.67,-0.24 1.67,-0.52 0,-0.25 -0.06,-0.46 -0.13,-0.77 l -4.92,-19.73 c -0.18,-0.63 -0.18,-0.7 -0.18,-0.77 0,-0.53 0.42,-1.12 1.19,-1.12 0.94,0 1.4,0.7 1.61,1.47 0.06,0.13 1.56,6.27 1.7,6.76 2.48,-0.24 4.47,-1.04 4.47,-2.86 0,-0.17 0,-0.35 -0.07,-0.7 -0.14,-0.52 -0.14,-0.7 -0.14,-1.08 0,-2.47 2.02,-3.59 3.69,-3.59 3.39,0 4.43,5.3 4.43,5.33 0,0.46 -0.45,0.46 -0.56,0.46 -0.48,0 -0.52,-0.17 -0.69,-0.84 -0.42,-1.5 -1.36,-3.97 -3.07,-3.97 -0.94,0 -1.22,0.87 -1.22,1.81 0,0.6 0,0.66 0.21,1.57 0.03,0.1 0.17,0.7 0.17,1.08 0,3.11 -4.18,3.59 -5.65,3.7 1.02,0.62 2.3,1.78 2.9,2.3 1.77,1.67 3.52,3.31 5.47,3.31 0.42,0 0.87,-0.1 1.15,-0.45 -1.5,-0.25 -1.81,-1.43 -1.81,-1.95 0,-0.77 0.59,-1.3 1.39,-1.3 0.95,0 1.99,0.77 1.99,2.24 0,1.15 -0.84,2.44 -2.68,2.44 -1.99,0 -3.81,-1.43 -5.58,-3.07 -1.47,-1.4 -2.62,-2.48 -4.05,-3.07 z"
               id="path3931" /><path
               style="fill:#000000;stroke-width:0"
               inkscape:connector-curvature="0"
               d="m 581.28,401.21 0,0 0,0 0,0.01 0,0 0,0 0,0.01 0,0.01 0,0.01 0,0.01 0,0.02 0,0.01 -0.01,0.01 0,0.02 -0.01,0.01 0,0.02 -0.01,0.01 -0.01,0.02 0,0.01 -0.01,0.02 -0.02,0.01 -0.01,0.02 -0.01,0.01 -0.01,0.01 -0.01,0.01 -0.01,0.01 0,0 -0.01,0.01 -0.01,0.01 -0.01,0 -0.01,0.01 -0.01,0 -0.01,0.01 -0.02,0 -0.01,0.01 -0.01,0 -0.01,0.01 -0.02,0 -0.01,0 -0.02,0.01 -0.01,0 -0.02,0 -0.01,0.01 -0.02,0 -0.02,0 -0.01,0 -0.02,0 c -0.16,0 -0.18,-0.02 -0.48,-0.3 l -1.71,-1.72 c -0.05,-0.05 -0.23,-0.22 -0.28,-0.22 -0.05,0 -0.1,0.07 -0.12,0.07 -0.5,0.55 -2.02,2.17 -5.28,2.17 -6.86,0 -13.16,-5.36 -13.16,-10.81 0,-4.06 3.49,-7.3 8.82,-7.3 2.52,0 4.73,0.85 6.25,1.82 3.19,2.07 3.57,4.73 3.57,4.76 0,0.35 -0.35,0.35 -0.53,0.35 -0.27,0 -0.42,-0.03 -0.52,-0.33 -1.2,-3.93 -5.33,-5.48 -8.15,-5.48 -2.91,0 -6.67,1.25 -6.67,5.61 0,2.78 1.47,5.68 3.04,7.17 2.89,2.74 6.17,3.09 7.72,3.09 3.19,0 5.2,-2.07 5.2,-4.93 0,-0.55 -0.05,-0.67 -0.05,-0.83 0,-0.37 0.36,-0.37 0.58,-0.37 0.47,0 0.47,0.08 0.6,0.55 z"
               id="path3933" /><path
               style="fill:#000000;stroke-width:0"
               inkscape:connector-curvature="0"
               d="m 639.62,435.59 0.11,0.05 0.09,0.04 0.05,0.03 0.05,0.02 0.04,0.03 0.04,0.02 0.05,0.03 0.04,0.02 0.04,0.03 0.03,0.03 0.04,0.03 0.04,0.03 0.03,0.03 0.03,0.03 0.03,0.03 0.03,0.03 0.03,0.04 0.03,0.03 0.02,0.04 0.02,0.04 0.02,0.04 0.02,0.04 0.02,0.04 0.01,0.04 0.01,0.05 0.01,0.05 0.01,0.04 0.01,0.06 0,0.05 0,0.05 c 0,0.55 -0.4,1 -1,1 -0.25,0 -0.69,-0.2 -0.89,-0.3 l -27.55,-13 c -0.85,-0.4 -1,-0.75 -1,-1.15 0,-0.44 0.3,-0.79 1,-1.09 l 27.55,-12.95 c 0.64,-0.35 0.75,-0.35 0.89,-0.35 0.55,0 1,0.45 1,1 0,0.45 -0.2,0.74 -1.05,1.14 l -26.05,12.25 z"
               id="path3935" /><path
               style="fill:#000000;stroke-width:0"
               inkscape:connector-curvature="0"
               d="m 638.83,399.18 0.16,0 0.16,0 0.15,0 0.08,0.01 0.08,0 0.07,0.01 0.08,0.01 0.07,0.01 0.07,0.01 0.07,0.01 0.07,0.02 0.06,0.02 0.07,0.02 0.06,0.03 0.05,0.02 0.06,0.03 0.05,0.04 0.05,0.04 0.05,0.04 0.04,0.05 0.04,0.05 0.01,0.02 0.02,0.03 0.02,0.03 0.01,0.03 0.02,0.03 0.01,0.03 0.01,0.04 0.01,0.03 0.01,0.04 0.01,0.04 0,0.04 0.01,0.04 0,0.04 0.01,0.04 0,0.05 0,0.04 c 0,1 -1.05,1 -1.79,1 l -26.85,0 c -0.75,0 -1.8,0 -1.8,-1 0,-0.99 0.9,-0.99 1.75,-0.99 z"
               id="path3937" /><path
               style="fill:#000000;stroke-width:0"
               inkscape:connector-curvature="0"
               d="m 696.86,440.62 0,0.02 0,0.01 0,0.02 -0.01,0.02 0,0.01 0,0.02 -0.01,0.02 0,0.02 -0.01,0.02 -0.01,0.02 -0.01,0.02 -0.01,0.02 -0.01,0.02 -0.01,0.02 -0.01,0.02 -0.02,0.02 -0.01,0.02 -0.02,0.02 -0.02,0.02 -0.02,0.02 -0.02,0.02 -0.02,0.01 -0.03,0.02 -0.03,0.01 -0.02,0.01 -0.02,0.01 -0.01,0 -0.02,0.01 -0.02,0 -0.01,0.01 -0.02,0 -0.02,0.01 -0.01,0 -0.02,0 -0.02,0 -0.02,0 -0.02,0.01 -0.02,0 -0.02,0 c -0.15,0 -0.2,-0.05 -0.75,-0.6 l -3.49,-3.84 c -0.44,0.7 -2.73,4.44 -8.26,4.44 -11.11,0 -22.32,-11.01 -22.32,-22.57 0,-8.22 5.88,-13.65 13.5,-13.65 4.33,0 8.12,2 10.76,4.29 4.63,4.08 5.48,8.61 5.48,8.77 0,0.49 -0.5,0.49 -0.6,0.49 -0.3,0 -0.55,-0.09 -0.65,-0.49 -0.45,-1.45 -1.59,-4.99 -5.03,-7.87 -3.43,-2.79 -6.57,-3.64 -9.17,-3.64 -4.48,0 -9.76,2.59 -9.76,10.36 0,2.84 1.05,10.91 6.03,16.74 3.04,3.53 7.72,6.02 12.16,6.02 5.07,0 8.02,-3.83 8.02,-9.61 0,-1.99 -0.16,-2.04 -0.16,-2.54 0,-0.5 0.55,-0.5 0.75,-0.5 0.65,0 0.65,0.1 0.9,1 z"
               id="path3939" /></g></g><g
           id="g4259"
           transform="matrix(0.8,0,0,-0.8,802.60478,669.95038)"><g
             word-spacing="normal"
             letter-spacing="normal"
             font-size-adjust="none"
             font-stretch="normal"
             font-weight="normal"
             font-variant="normal"
             font-style="normal"
             stroke-miterlimit="10.433"
             xml:space="preserve"
             transform="matrix(1.0629921,0,0,-1.0629921,-186.02362,789.27165)"
             id="g4261"
             style="font-style:normal;font-variant:normal;font-weight:normal;font-stretch:normal;letter-spacing:normal;word-spacing:normal;text-anchor:start;fill:none;fill-opacity:1;fill-rule:evenodd;stroke:#000000;stroke-linecap:butt;stroke-linejoin:miter;stroke-miterlimit:10.43299961;stroke-dasharray:none;stroke-dashoffset:0;stroke-opacity:1"><path
               id="path4263"
               d="m 478.37,416.01 -0.01,0.55 -0.04,0.55 -0.06,0.54 -0.08,0.53 -0.1,0.53 -0.13,0.51 -0.14,0.5 -0.17,0.5 -0.18,0.48 -0.2,0.47 -0.23,0.46 -0.24,0.44 -0.26,0.43 -0.28,0.41 -0.29,0.4 -0.31,0.38 -0.32,0.36 -0.34,0.35 -0.36,0.33 -0.37,0.3 -0.38,0.29 -0.4,0.27 -0.41,0.24 -0.42,0.22 -0.43,0.2 -0.45,0.17 -0.45,0.15 -0.47,0.13 -0.47,0.09 -0.49,0.07 -0.49,0.05 -0.5,0.01 c -2.39,0 -4.53,-0.8 -6.33,-2.54 l 0,9.71 c 1,-0.29 2.64,-0.64 4.24,-0.64 6.13,0 9.61,4.53 9.61,5.18 0,0.3 -0.15,0.55 -0.49,0.55 -0.05,0 -0.15,0 -0.4,-0.15 -1,-0.45 -3.44,-1.45 -6.78,-1.45 -1.99,0 -4.28,0.35 -6.62,1.4 -0.4,0.14 -0.5,0.14 -0.6,0.14 -0.5,0 -0.5,-0.39 -0.5,-1.19 l 0,-14.75 c 0,-0.89 0,-1.29 0.7,-1.29 0.35,0 0.45,0.15 0.65,0.45 0.55,0.8 2.39,3.48 6.42,3.48 2.59,0 3.84,-2.28 4.24,-3.18 0.79,-1.85 0.89,-3.79 0.89,-6.28 0,-1.74 0,-4.73 -1.19,-6.82 -1.2,-1.95 -3.04,-3.24 -5.33,-3.24 -3.64,0 -6.48,2.64 -7.32,5.58 0.14,-0.05 0.29,-0.1 0.84,-0.1 1.64,0 2.49,1.24 2.49,2.44 0,1.19 -0.85,2.44 -2.49,2.44 -0.7,0 -2.44,-0.35 -2.44,-2.64 0,-4.29 3.44,-9.12 9.02,-9.12 5.78,0 10.86,4.79 10.86,11.11 z"
               inkscape:connector-curvature="0"
               style="fill:#000000;stroke-width:0" /><path
               id="path4265"
               d="m 502.91,421.94 0,0.75 -0.01,0.74 -0.02,0.75 -0.03,0.74 -0.05,0.75 -0.06,0.74 -0.07,0.74 -0.1,0.73 -0.11,0.73 -0.14,0.73 -0.16,0.72 -0.19,0.72 -0.22,0.71 -0.24,0.71 -0.28,0.7 -0.15,0.35 -0.16,0.35 c -2.29,4.78 -6.37,5.58 -8.47,5.58 -2.99,0 -6.62,-1.3 -8.66,-5.93 -1.6,-3.44 -1.85,-7.32 -1.85,-11.31 0,-3.74 0.2,-8.22 2.24,-12.01 2.15,-4.03 5.78,-5.03 8.22,-5.03 l 0,1.1 c -1.94,0 -4.88,1.25 -5.78,6.03 -0.54,2.99 -0.54,7.57 -0.54,10.51 0,3.19 0,6.47 0.4,9.16 0.94,5.93 4.68,6.38 5.92,6.38 1.65,0 4.94,-0.9 5.88,-5.83 0.5,-2.79 0.5,-6.57 0.5,-9.71 0,-3.74 0,-7.13 -0.55,-10.31 -0.75,-4.73 -3.59,-6.23 -5.83,-6.23 l 0,0 0,-1.1 c 2.69,0 6.48,1.05 8.67,5.78 1.59,3.44 1.84,7.32 1.84,11.26 z"
               inkscape:connector-curvature="0"
               style="fill:#000000;stroke-width:0" /><path
               id="path4267"
               d="m 519.75,441.37 0.01,0.01 0,0.01 0.01,0.03 0,0.03 0.01,0.03 0,0.03 0.01,0.04 0,0.03 0.01,0.03 0,0.04 0.01,0.03 0,0.04 0,0.03 0.01,0.04 0,0.03 0,0.04 0,0.03 c 0,0.04 0,0.49 -0.55,0.49 -0.04,0 -2.03,-0.18 -2.27,-0.18 -0.66,-0.07 -1.29,-0.1 -1.96,-0.17 -0.55,-0.04 -0.97,-0.07 -0.97,-0.8 0,-0.49 0.49,-0.49 0.91,-0.49 1.67,0 1.67,-0.21 1.67,-0.53 0,-0.2 -0.18,-0.9 -0.31,-1.35 l -1.75,-7.05 c -0.87,-3.49 -1.04,-4.18 -1.04,-4.32 0,-0.49 0.52,-0.49 0.66,-0.49 l 0.56,0 c 3.1,0.49 7.53,2.13 11.26,5.44 4.74,4.22 5.44,8.75 5.44,8.82 0,0.63 -0.49,1.12 -1.19,1.12 -1.22,0 -1.46,-0.98 -1.78,-1.95 -1.39,-4.96 -6.06,-10.29 -11.99,-12.04 z"
               inkscape:connector-curvature="0"
               style="fill:#000000;stroke-width:0" /><path
               id="path4269"
               d="m 537.18,424.07 -0.02,-0.07 -0.02,-0.07 -0.02,-0.06 -0.01,-0.06 -0.02,-0.05 -0.02,-0.06 -0.02,-0.05 -0.02,-0.05 -0.03,-0.04 -0.02,-0.04 -0.03,-0.04 -0.03,-0.04 -0.04,-0.04 -0.04,-0.03 -0.04,-0.03 -0.05,-0.03 -0.05,-0.02 -0.06,-0.03 -0.06,-0.02 -0.07,-0.02 -0.04,-0.01 -0.04,0 -0.04,-0.01 -0.04,-0.01 -0.05,-0.01 -0.04,0 -0.05,-0.01 -0.05,-0.01 -0.05,0 -0.06,-0.01 -0.05,0 -0.06,-0.01 -0.06,0 -0.06,0 -0.07,-0.01 -0.06,0 -0.07,0 -0.08,0 -0.07,-0.01 -0.08,0 -0.08,0 -0.08,0 -0.08,0 -0.09,0 c -0.65,0 -1.04,0 -1.04,-0.7 0,-0.42 0.39,-0.42 0.82,-0.42 l 10.83,0 c 4.48,0 8.12,2.79 8.12,5.28 0,1.54 -1.45,3.21 -4.83,3.64 2.46,0.32 5.97,1.96 5.97,4.46 0,2.09 -2.46,3.63 -5.85,3.63 l -0.45,-1.12 c 2.47,0 3.64,-1.27 3.64,-2.59 0,-2.02 -2.69,-4.03 -6.18,-4.03 l -4.7,0 -0.23,-0.85 6.08,0 c 2.54,0 3.81,-1.47 3.81,-3.04 0,-2.42 -2.96,-4.26 -6.05,-4.26 l -4.81,0 c -0.2,0 -0.54,0 -0.79,0.05 0.02,0.2 0.02,0.25 0.07,0.45 l 1.69,6.8 0.23,0.85 1.44,5.8 c 0.2,0.77 0.2,0.82 1.24,0.82 l 4.56,0 0.45,1.12 -10.21,0 c -0.47,0 -0.87,0 -0.87,-0.7 0,-0.42 0.32,-0.42 0.92,-0.42 0.25,0 1.07,0 1.6,-0.15 0,-0.3 0,-0.35 -0.08,-0.62 z"
               inkscape:connector-curvature="0"
               style="fill:#000000;stroke-width:0" /><polyline
               id="polyline4271"
               points="511,418 560.56,418 560.56,420.04 511,420.04 "
               style="fill:#000000;fill-rule:nonzero;stroke-width:0" /><path
               id="path4273"
               d="m 522.91,412.15 0.01,0.01 0,0 0,0 0,0.01 0,0.01 0.01,0 0,0.01 0,0 0,0.02 0.01,0.02 0.01,0.02 0,0.01 0.01,0.02 0,0.03 0.01,0.02 0,0.02 0.01,0.02 0.01,0.03 0.01,0.04 0.01,0.05 0,0.03 0.01,0.02 0,0.02 0.01,0.02 0,0.02 0.01,0.02 0,0.02 0,0.01 0.01,0.01 0,0.01 0,0 0,0.01 0,0.01 0,0 0,0.01 0,0 0,0 0,0.01 0,0 0,0 c 0,0.18 -0.14,0.49 -0.55,0.49 -0.7,0 -3.6,-0.28 -4.47,-0.35 -0.28,-0.03 -0.76,-0.07 -0.76,-0.8 0,-0.49 0.48,-0.49 0.9,-0.49 1.67,0 1.67,-0.24 1.67,-0.52 0,-0.25 -0.06,-0.46 -0.13,-0.77 l -4.92,-19.73 c -0.18,-0.63 -0.18,-0.7 -0.18,-0.77 0,-0.53 0.42,-1.12 1.19,-1.12 0.94,0 1.4,0.7 1.61,1.47 0.06,0.13 1.56,6.27 1.7,6.76 2.48,-0.24 4.47,-1.04 4.47,-2.86 0,-0.17 0,-0.35 -0.07,-0.7 -0.14,-0.52 -0.14,-0.7 -0.14,-1.08 0,-2.47 2.02,-3.59 3.69,-3.59 3.39,0 4.43,5.3 4.43,5.33 0,0.46 -0.45,0.46 -0.56,0.46 -0.48,0 -0.52,-0.17 -0.69,-0.84 -0.42,-1.5 -1.36,-3.97 -3.07,-3.97 -0.94,0 -1.22,0.87 -1.22,1.81 0,0.6 0,0.66 0.21,1.57 0.03,0.1 0.17,0.7 0.17,1.08 0,3.11 -4.18,3.59 -5.65,3.7 1.02,0.62 2.3,1.78 2.9,2.3 1.77,1.67 3.52,3.31 5.47,3.31 0.42,0 0.87,-0.1 1.15,-0.45 -1.5,-0.25 -1.81,-1.43 -1.81,-1.95 0,-0.77 0.59,-1.3 1.39,-1.3 0.95,0 1.99,0.77 1.99,2.24 0,1.15 -0.84,2.44 -2.68,2.44 -1.99,0 -3.81,-1.43 -5.58,-3.07 -1.47,-1.4 -2.62,-2.48 -4.05,-3.07 z"
               inkscape:connector-curvature="0"
               style="fill:#000000;stroke-width:0" /><path
               id="path4275"
               d="m 547.47,398.87 0.02,0.07 0.02,0.07 0.01,0.06 0.02,0.06 0.02,0.05 0.01,0.05 0.02,0.05 0.01,0.04 0.02,0.04 0.02,0.04 0.02,0.04 0.02,0.03 0.02,0.03 0.02,0.02 0.03,0.03 0.03,0.02 0.03,0.02 0.03,0.02 0.04,0.01 0.04,0.01 0.04,0.02 0.04,0.01 0.05,0 0.03,0.01 0.03,0 0.03,0 0.03,0.01 0.03,0 0.03,0 0.03,0 0.04,0 0.03,0.01 0.04,0 0.04,0 0.04,0 0.04,0 0.04,0 0.05,0 0.04,0 0.05,0 0.05,0 2.66,0 c 2.79,0 3.14,-0.77 3.14,-2.31 0,-0.18 0,-0.65 -0.18,-1.85 l -0.02,-0.22 c 0,-0.25 0.15,-0.45 0.52,-0.45 0.48,0 0.53,0.22 0.57,0.67 l 0.63,4.46 c 0.05,0.25 0.05,0.3 0.05,0.4 0,0.42 -0.4,0.42 -0.82,0.42 l -17.46,0 c -0.65,0 -0.68,0 -0.88,-0.52 l -1.64,-4.58 c -0.02,-0.05 -0.15,-0.4 -0.15,-0.43 0,-0.15 0.1,-0.42 0.52,-0.42 0.4,0 0.43,0.07 0.65,0.67 1.12,2.97 1.85,4.16 5.23,4.16 l 2.69,0 c 0.2,0 0.55,0 0.8,-0.05 l 0,-0.15 -3.34,-13.32 c -0.2,-0.8 -0.27,-1.05 -2.89,-1.05 l -0.55,0 c -0.52,0 -0.54,-0.02 -0.67,-0.12 -0.12,-0.13 -0.22,-0.4 -0.22,-0.58 0,-0.15 0.1,-0.42 0.49,-0.42 0.75,0 1.55,0.07 2.3,0.07 l 4.73,0 c 0.75,0 1.55,-0.07 2.29,-0.07 0.18,0 0.65,0 0.65,0.7 0,0.42 -0.37,0.42 -0.8,0.42 l -0.55,0 c -0.64,0 -1.31,0 -1.96,0.13 -0.2,0.02 -0.35,0.05 -0.35,0.32 0,0.13 0,0.17 0.1,0.52 z"
               inkscape:connector-curvature="0"
               style="fill:#000000;stroke-width:0" /><path
               id="path4277"
               d="m 614.62,435.59 0.11,0.05 0.09,0.04 0.05,0.03 0.05,0.02 0.04,0.03 0.04,0.02 0.05,0.03 0.04,0.02 0.04,0.03 0.03,0.03 0.04,0.03 0.04,0.03 0.03,0.03 0.03,0.03 0.03,0.03 0.03,0.03 0.03,0.04 0.03,0.03 0.02,0.04 0.02,0.04 0.02,0.04 0.02,0.04 0.02,0.04 0.01,0.04 0.01,0.05 0.01,0.05 0.01,0.04 0.01,0.06 0,0.05 0,0.05 c 0,0.55 -0.4,1 -1,1 -0.25,0 -0.69,-0.2 -0.89,-0.3 l -27.55,-13 c -0.85,-0.4 -1,-0.75 -1,-1.15 0,-0.44 0.3,-0.79 1,-1.09 l 27.55,-12.95 c 0.64,-0.35 0.75,-0.35 0.89,-0.35 0.55,0 1,0.45 1,1 0,0.45 -0.2,0.74 -1.05,1.14 l -26.05,12.25 z"
               inkscape:connector-curvature="0"
               style="fill:#000000;stroke-width:0" /><path
               id="path4279"
               d="m 613.83,399.18 0.16,0 0.16,0 0.15,0 0.08,0.01 0.08,0 0.07,0.01 0.08,0.01 0.07,0.01 0.07,0.01 0.07,0.01 0.07,0.02 0.06,0.02 0.07,0.02 0.06,0.03 0.05,0.02 0.06,0.03 0.05,0.04 0.05,0.04 0.05,0.04 0.04,0.05 0.04,0.05 0.01,0.02 0.02,0.03 0.02,0.03 0.01,0.03 0.02,0.03 0.01,0.03 0.01,0.04 0.01,0.03 0.01,0.04 0.01,0.04 0,0.04 0.01,0.04 0,0.04 0.01,0.04 0,0.05 0,0.04 c 0,1 -1.05,1 -1.79,1 l -26.85,0 c -0.75,0 -1.8,0 -1.8,-1 0,-0.99 0.9,-0.99 1.75,-0.99 z"
               inkscape:connector-curvature="0"
               style="fill:#000000;stroke-width:0" /><path
               id="path4281"
               d="m 654.27,436.24 0.03,0.13 0.03,0.12 0.03,0.11 0.03,0.11 0.03,0.11 0.03,0.09 0.03,0.1 0.03,0.08 0.03,0.09 0.03,0.07 0.03,0.08 0.03,0.06 0.03,0.07 0.03,0.06 0.03,0.05 0.03,0.06 0.03,0.04 0.03,0.05 0.04,0.04 0.03,0.04 0.04,0.03 0.03,0.04 0.04,0.03 0.04,0.02 0.04,0.03 0.05,0.02 0.04,0.02 0.05,0.02 0.05,0.02 0.05,0.02 0.05,0.01 0.05,0.02 c 0.45,0.1 2.1,0.1 3.14,0.1 5.04,0 7.28,-0.2 7.28,-4.09 0,-0.74 -0.2,-2.68 -0.4,-3.98 -0.05,-0.2 -0.15,-0.8 -0.15,-0.95 0,-0.3 0.15,-0.64 0.6,-0.64 0.55,0 0.64,0.39 0.74,1.14 l 1.35,8.67 c 0.05,0.2 0.1,0.7 0.1,0.85 0,0.54 -0.5,0.54 -1.35,0.54 l -27.64,0 c -1.2,0 -1.25,-0.05 -1.6,-0.99 l -2.98,-8.77 c -0.05,-0.1 -0.3,-0.8 -0.3,-0.9 0,-0.29 0.25,-0.54 0.59,-0.54 0.5,0 0.55,0.25 0.85,1.04 2.69,7.72 3.98,8.62 11.36,8.62 l 1.94,0 c 1.4,0 1.4,-0.2 1.4,-0.6 0,-0.3 -0.16,-0.9 -0.2,-1.04 l -6.68,-26.61 c -0.45,-1.84 -0.6,-2.39 -5.93,-2.39 -1.79,0 -2.09,0 -2.09,-0.94 0,-0.6 0.55,-0.6 0.85,-0.6 1.34,0 2.74,0.1 4.08,0.1 l 8.37,0 c 1.44,0 2.94,-0.1 4.33,-0.1 0.5,0 1.1,0 1.1,1 0,0.54 -0.4,0.54 -1.69,0.54 -1.25,0 -1.89,0 -3.19,0.1 -1.45,0.15 -1.84,0.3 -1.84,1.1 0,0.05 0,0.3 0.2,1.05 z"
               inkscape:connector-curvature="0"
               style="fill:#000000;stroke-width:0" /></g></g><text
           xml:space="preserve"
           style="font-style:normal;font-weight:normal;font-size:25.13469696px;line-height:125%;font-family:sans-serif;text-align:center;letter-spacing:0px;word-spacing:0px;writing-mode:lr-tb;text-anchor:middle;fill:#000000;fill-opacity:1;stroke:none;stroke-width:1px;stroke-linecap:butt;stroke-linejoin:miter;stroke-opacity:1"
           x="347.44122"
           y="-448.80646"
           id="text4453"
           sodipodi:linespacing="125%"
           transform="scale(1,-1)"><tspan
             sodipodi:role="line"
             id="tspan4455"
             x="347.44122"
             y="-448.80646">Process capacity constraints</tspan></text>
<rect
           style="color:#000000;clip-rule:nonzero;display:inline;overflow:visible;visibility:visible;opacity:1;isolation:auto;mix-blend-mode:normal;color-interpolation:sRGB;color-interpolation-filters:linearRGB;solid-color:#000000;solid-opacity:1;fill:none;fill-opacity:1;fill-rule:evenodd;stroke:#000000;stroke-width:2.0107758;stroke-linecap:butt;stroke-linejoin:miter;stroke-miterlimit:4;stroke-dasharray:none;stroke-dashoffset:0;stroke-opacity:1;color-rendering:auto;image-rendering:auto;shape-rendering:auto;text-rendering:auto;enable-background:accumulate"
           id="rect4457"
           width="1136.0884"
           height="140.7543"
           x="150.92615"
           y="-485.06168"
           transform="scale(1,-1)" /><path
           style="fill:none;fill-rule:evenodd;stroke:#ff0000;stroke-width:2.0107758px;stroke-linecap:butt;stroke-linejoin:miter;stroke-opacity:1"
           d="m 194.61212,374.40301 56.85282,0"
           id="path5283"
           inkscape:connector-curvature="0" /><path
           inkscape:connector-curvature="0"
           id="path5285"
           d="m 684.22586,374.40301 56.85282,0"
           style="fill:none;fill-rule:evenodd;stroke:#ff0000;stroke-width:2.0107758px;stroke-linecap:butt;stroke-linejoin:miter;stroke-opacity:1" /><path
           style="fill:none;fill-rule:evenodd;stroke:#ff0000;stroke-width:2.0107758px;stroke-linecap:butt;stroke-linejoin:miter;stroke-opacity:1"
           d="m 1044.379,374.40301 37.5565,0"
           id="path5287"
           inkscape:connector-curvature="0"
           sodipodi:nodetypes="cc" /><path
           sodipodi:nodetypes="cc"
           inkscape:connector-curvature="0"
           id="path5289"
           d="m 352.67208,374.40301 37.5565,0"
           style="fill:none;fill-rule:evenodd;stroke:#ff0000;stroke-width:2.0107758px;stroke-linecap:butt;stroke-linejoin:miter;stroke-opacity:1" /></g>    </g>
  </g>
</svg>
