<?xml version="1.0" encoding="UTF-8" standalone="no"?>
<!-- Created with Inkscape (http://www.inkscape.org/) -->

<svg
   xmlns:dc="http://purl.org/dc/elements/1.1/"
   xmlns:cc="http://creativecommons.org/ns#"
   xmlns:rdf="http://www.w3.org/1999/02/22-rdf-syntax-ns#"
   xmlns:svg="http://www.w3.org/2000/svg"
   xmlns="http://www.w3.org/2000/svg"
   xmlns:sodipodi="http://sodipodi.sourceforge.net/DTD/sodipodi-0.dtd"
   xmlns:inkscape="http://www.inkscape.org/namespaces/inkscape"
   width="210mm"
   height="297mm"
   id="svg2"
   version="1.1"
   inkscape:version="0.48.2 r9819"
   sodipodi:docname="2D_duality_inequalities.svg">
  <defs
     id="defs4">
    <marker
       inkscape:stockid="Arrow1Mstart"
       orient="auto"
       refY="0.0"
       refX="0.0"
       id="Arrow1Mstart"
       style="overflow:visible">
      <path
         id="path3770"
         d="M 0.0,0.0 L 5.0,-5.0 L -12.5,0.0 L 5.0,5.0 L 0.0,0.0 z "
         style="fill-rule:evenodd;stroke:#000000;stroke-width:1.0pt;marker-start:none"
         transform="scale(0.4) translate(10,0)" />
    </marker>
    <marker
       inkscape:stockid="Arrow1Mend"
       orient="auto"
       refY="0.0"
       refX="0.0"
       id="Arrow1Mend"
       style="overflow:visible;">
      <path
         id="path3773"
         d="M 0.0,0.0 L 5.0,-5.0 L -12.5,0.0 L 5.0,5.0 L 0.0,0.0 z "
         style="fill-rule:evenodd;stroke:#000000;stroke-width:1.0pt;marker-start:none;"
         transform="scale(0.4) rotate(180) translate(10,0)" />
    </marker>
    <marker
       inkscape:stockid="EmptyTriangleOutL"
       orient="auto"
       refY="0.0"
       refX="0.0"
       id="EmptyTriangleOutL"
       style="overflow:visible">
      <path
         id="path3925"
         d="M 5.77,0.0 L -2.88,5.0 L -2.88,-5.0 L 5.77,0.0 z "
         style="fill-rule:evenodd;fill:#FFFFFF;stroke:#000000;stroke-width:1.0pt;marker-start:none"
         transform="scale(0.8) translate(-6,0)" />
    </marker>
    <marker
       inkscape:stockid="EmptyTriangleOutM"
       orient="auto"
       refY="0.0"
       refX="0.0"
       id="EmptyTriangleOutM"
       style="overflow:visible">
      <path
         id="path3928"
         d="M 5.77,0.0 L -2.88,5.0 L -2.88,-5.0 L 5.77,0.0 z "
         style="fill-rule:evenodd;fill:#FFFFFF;stroke:#000000;stroke-width:1.0pt;marker-start:none"
         transform="scale(0.4) translate(-4.5,0)" />
    </marker>
  </defs>
  <sodipodi:namedview
     id="base"
     pagecolor="#ffffff"
     bordercolor="#666666"
     borderopacity="1.0"
     inkscape:pageopacity="0.0"
     inkscape:pageshadow="2"
     inkscape:zoom="1.4142136"
     inkscape:cx="445.21308"
     inkscape:cy="922.65423"
     inkscape:document-units="px"
     inkscape:current-layer="layer1"
     showgrid="false"
     inkscape:window-width="1680"
     inkscape:window-height="976"
     inkscape:window-x="0"
     inkscape:window-y="25"
     inkscape:window-maximized="1" />
  <metadata
     id="metadata7">
    <rdf:RDF>
      <cc:Work
         rdf:about="">
        <dc:format>image/svg+xml</dc:format>
        <dc:type
           rdf:resource="http://purl.org/dc/dcmitype/StillImage" />
        <dc:title />
      </cc:Work>
    </rdf:RDF>
  </metadata>
  <g
     inkscape:label="Calque 1"
     inkscape:groupmode="layer"
     id="layer1">
    <path
       style="fill:none;stroke:#000000;stroke-width:1px;stroke-linecap:butt;stroke-linejoin:miter;stroke-opacity:1"
       d="m 370.71429,35.219324 0,262.142856"
       id="path2985"
       inkscape:connector-curvature="0" />
    <path
       style="fill:none;stroke:#000000;stroke-width:1px;stroke-linecap:butt;stroke-linejoin:miter;stroke-opacity:1"
       d="m 184.28571,170.93361 379.28572,0"
       id="path2987"
       inkscape:connector-curvature="0"
       sodipodi:nodetypes="cc" />
    <path
       style="fill:none;stroke:#000000;stroke-width:1;stroke-linecap:butt;stroke-linejoin:miter;stroke-opacity:1;stroke-miterlimit:4;stroke-dasharray:none;marker-end:url(#EmptyTriangleOutL)"
       d="m 371.42857,170.93361 130,-52.14286"
       id="path2989"
       inkscape:connector-curvature="0" />
    <path
       style="fill:none;stroke:#000000;stroke-width:1;stroke-linecap:butt;stroke-linejoin:miter;stroke-miterlimit:4;stroke-opacity:1;stroke-dasharray:none;marker-end:url(#EmptyTriangleOutL)"
       d="M 370.71429,170.93361 430,206.6479"
       id="path2991"
       inkscape:connector-curvature="0"
       sodipodi:nodetypes="cc" />
    <path
       inkscape:connector-curvature="0"
       id="path4404"
       d="M 402.50948,31.751069 498.49296,268.52419"
       style="fill:none;stroke:#000000;stroke-width:1;stroke-linecap:butt;stroke-linejoin:miter;stroke-miterlimit:4;stroke-opacity:1;stroke-dasharray:none;marker-end:none"
       sodipodi:nodetypes="cc" />
    <path
       sodipodi:nodetypes="cc"
       inkscape:connector-curvature="0"
       id="path4590"
       d="M 411.38943,34.960562 263.24517,274.5585"
       style="fill:none;stroke:#000000;stroke-width:1;stroke-linecap:butt;stroke-linejoin:miter;stroke-miterlimit:4;stroke-opacity:1;stroke-dasharray:none;marker-end:none" />
    <text
       xml:space="preserve"
       style="font-size:14px;font-style:normal;font-variant:normal;font-weight:normal;font-stretch:normal;line-height:125%;letter-spacing:0px;word-spacing:0px;fill:#000000;fill-opacity:1;stroke:none;font-family:DejaVu Sans;-inkscape-font-specification:DejaVu Sans"
       x="509.11688"
       y="126.0523"
       id="text4776"
       sodipodi:linespacing="125%"><tspan
         sodipodi:role="line"
         id="tspan4778"
         x="509.11688"
         y="126.0523">L<tspan
   style="font-size:65%;baseline-shift:sub"
   id="tspan5054">1</tspan></tspan></text>
    <text
       xml:space="preserve"
       style="font-size:14px;font-style:normal;font-variant:normal;font-weight:normal;font-stretch:normal;line-height:125%;letter-spacing:0px;word-spacing:0px;fill:#000000;fill-opacity:1;stroke:none;font-family:DejaVu Sans;-inkscape-font-specification:DejaVu Sans"
       x="430.62802"
       y="227.87569"
       id="text4780"
       sodipodi:linespacing="125%"><tspan
         sodipodi:role="line"
         id="tspan4782"
         x="430.62802"
         y="227.87569">L<tspan
   style="font-size:65%;baseline-shift:sub"
   id="tspan5056">2</tspan></tspan></text>
    <path
       sodipodi:nodetypes="cc"
       inkscape:connector-curvature="0"
       id="path4784"
       d="M 229.29293,84.666583 430,206.6479"
       style="fill:none;stroke:#000000;stroke-width:1;stroke-linecap:butt;stroke-linejoin:miter;stroke-miterlimit:4;stroke-opacity:1;stroke-dasharray:1,4;marker-end:url(#EmptyTriangleOutL);stroke-dashoffset:0" />
    <text
       xml:space="preserve"
       style="font-size:14px;font-style:normal;font-variant:normal;font-weight:normal;font-stretch:normal;line-height:125%;letter-spacing:0px;word-spacing:0px;fill:#000000;fill-opacity:1;stroke:none;font-family:DejaVu Sans;-inkscape-font-specification:DejaVu Sans"
       x="494.97473"
       y="244.84624"
       id="text4786"
       sodipodi:linespacing="125%"><tspan
         sodipodi:role="line"
         id="tspan4788"
         x="494.97473"
         y="244.84624">L<tspan
   style="font-size:65.00091553%;baseline-shift:sub"
   id="tspan4827">1</tspan><tspan
   style="font-size:65.00091553%;baseline-shift:super"
   id="tspan4829">T</tspan>ν=b<tspan
   style="font-size:65.00091553%;baseline-shift:sub"
   id="tspan4831">1</tspan></tspan></text>
    <flowRoot
       xml:space="preserve"
       id="flowRoot4833"
       style="fill:black;stroke:none;stroke-opacity:1;stroke-width:1px;stroke-linejoin:miter;stroke-linecap:butt;fill-opacity:1;font-family:DejaVu Sans;font-style:normal;font-weight:normal;font-size:14px;line-height:125%;letter-spacing:0px;word-spacing:0px;-inkscape-font-specification:DejaVu Sans;font-stretch:normal;font-variant:normal"><flowRegion
         id="flowRegion4835"><rect
           id="rect4837"
           width="93.338097"
           height="75.660423"
           x="222.03152"
           y="259.69547" /></flowRegion><flowPara
         id="flowPara4839" /></flowRoot>    <text
       xml:space="preserve"
       style="font-size:14px;font-style:normal;font-variant:normal;font-weight:normal;font-stretch:normal;line-height:125%;letter-spacing:0px;word-spacing:0px;fill:#000000;fill-opacity:1;stroke:none;font-family:DejaVu Sans;-inkscape-font-specification:DejaVu Sans"
       x="230.5168"
       y="297.17215"
       id="text4841"
       sodipodi:linespacing="125%"><tspan
         sodipodi:role="line"
         id="tspan4843"
         x="230.5168"
         y="297.17215">L<tspan
   style="font-size:65.00091553%;baseline-shift:sub"
   id="tspan4845">2</tspan><tspan
   style="font-size:65.00091553%;baseline-shift:super"
   id="tspan4847">T</tspan>ν=b<tspan
   style="font-size:65.00091553%;baseline-shift:sub"
   id="tspan4849">2</tspan></tspan></text>
    <path
       style="fill:none;stroke:#000000;stroke-width:1px;stroke-linecap:butt;stroke-linejoin:miter;stroke-opacity:1;marker-end:url(#Arrow1Mend)"
       d="m 432.74935,42.613698 c -4.24264,0 -17.67767,0.707107 -17.67767,0.707107"
       id="path4856"
       inkscape:connector-curvature="0" />
    <path
       style="color:#000000;fill:#cccccc;fill-opacity:1;fill-rule:nonzero;stroke:none;stroke-width:1;marker:none;visibility:visible;display:inline;overflow:visible;enable-background:accumulate"
       d="m 158.26915,273.66815 c -2.139,-0.27826 -6.08363,-1.34517 -8.76586,-2.37091 -2.68222,-1.02574 -5.0201,-1.86498 -5.19528,-1.86498 -1.04235,0 -10.96733,-10.53155 -14.99357,-15.90991 -11.77886,-15.73454 -15.54646,-22.32527 -18.79614,-32.88046 -0.89802,-2.91682 -4.04486,-12.55837 -6.99299,-21.42566 -2.94813,-8.8673 -5.360234,-16.86696 -5.360234,-17.77704 0,-0.91007 -0.812534,-4.78195 -1.80563,-8.60416 -0.993096,-3.82223 -1.620414,-7.68745 -1.39404,-8.5894 0.226374,-0.90194 -0.214708,-4.27695 -0.980182,-7.5 -0.765475,-3.22306 -1.374274,-7.1279 -1.352889,-8.67743 0.03893,-2.82079 -2.74995,-11.59639 -4.633819,-14.58096 -0.551034,-0.87299 -1.520742,-3.49644 -2.154906,-5.82989 -0.634164,-2.33346 -1.742266,-5.67454 -2.462449,-7.42463 -4.20811,-10.22598 -4.307968,-10.68096 -4.307968,-19.6285 0,-7.608549 0.260175,-9.507915 2.177467,-15.896236 1.197607,-3.990372 2.449242,-8.368913 2.781412,-9.730094 1.576706,-6.461089 2.113239,-8.004264 4.844165,-13.932752 1.608683,-3.492245 2.924878,-6.833647 2.924878,-7.425339 0,-2.062412 6.574095,-7.256758 12.020815,-9.497926 5.12201,-2.107562 13.9086,-4.517479 16.42623,-4.50526 0.67289,0.0033 3.21848,-0.759076 5.65686,-1.694094 2.43838,-0.935017 7.6154,-2.735505 11.50448,-4.001083 7.0598,-2.297383 8.99826,-2.570963 29.69849,-4.191421 5.05581,-0.39578 10.11491,-1.036552 11.24244,-1.423939 1.12754,-0.387387 3.23537,-0.70434 4.68408,-0.70434 1.4487,0 4.02635,-0.502035 5.72811,-1.115633 1.70175,-0.613599 5.63969,-1.413177 8.75096,-1.776842 11.6651,-1.363492 15.67172,-1.9872 19.79899,-3.082101 2.33345,-0.61903 6.94732,-1.58936 10.25305,-2.15629 3.30572,-0.56693 7.2832,-1.342145 8.83883,-1.7227 1.55564,-0.380555 5.21491,-1.192228 8.13173,-1.803717 10.50141,-2.201545 12.41747,-2.657644 15.22643,-3.624489 3.94492,-1.357845 20.19637,-1.318203 24.018,0.05858 1.55563,0.560438 4.41941,1.035194 6.36396,1.055015 1.94454,0.01982 6.55841,0.53966 10.25305,1.1552 3.69463,0.61554 8.9449,1.369122 11.66726,1.674628 17.54519,1.968937 22.14233,2.94428 30.40559,6.450937 5.76552,2.446702 9.87204,3.585571 14.14213,3.922077 2.72237,0.214535 5.90435,0.802406 7.07107,1.306378 1.16673,0.503972 4.26582,1.135672 6.88685,1.403778 2.62104,0.268105 4.94676,0.780694 5.16826,1.139086 0.2215,0.358392 1.05079,0.651622 1.84288,0.651622 1.66778,0 5.12529,1.788999 7.66877,3.968005 2.05774,1.762878 10.42615,2.729442 15.32367,1.769911 l 2.94931,-0.577831 1.13475,2.971306 1.13475,2.971307 -16.81198,27.210309 -16.81198,27.210308 -0.18413,-30.99389 c -0.15981,-26.90012 -0.32325,-30.993891 -1.23743,-30.993891 -0.91769,0 -1.05599,4.256348 -1.07413,33.057242 l -0.0209,33.057244 -21.44951,34.64823 -21.4495,34.64823 -71.51422,0.18015 c -46.85598,0.11803 -71.51417,0.42279 -71.51417,0.88388 0,0.46222 24.26712,0.70374 70.71067,0.70374 38.89088,0 70.71068,0.18729 70.71068,0.4162 0,0.22892 -12.75633,21.04128 -28.3474,46.24969 l -28.34741,45.83348 -8.24536,0.45711 c -4.53496,0.2514 -9.52881,0.91741 -11.09744,1.48002 -1.56864,0.5626 -3.40948,1.02292 -4.09075,1.02292 -0.68127,0 -2.04033,0.52526 -3.02013,1.16724 -1.51183,0.9906 -3.04792,1.09916 -10.14933,0.71732 -6.7441,-0.36262 -9.72101,-0.89786 -15.34101,-2.75824 -6.6938,-2.21584 -7.41215,-2.30706 -17.93328,-2.27727 -10.39541,0.0294 -11.34273,0.15165 -18.38478,2.37174 -4.603,1.45115 -8.96675,3.38762 -11.48249,5.09549 -2.23182,1.51513 -4.61831,2.708 -5.3033,2.65082 -0.68498,-0.0572 -2.99552,-0.33163 -5.13452,-0.60989 l 0,0 z M 337.47493,150.0053 c 0.21517,-0.34815 -0.0842,-0.81546 -0.66537,-1.03846 -0.64182,-0.24629 -1.05661,0.002 -1.05661,0.633 0,1.14367 1.10494,1.40385 1.72198,0.40546 l 0,0 z m -4.8303,-3.41812 c -0.71878,-0.71878 -1.31186,0.36338 -0.72211,1.31761 0.4455,0.72084 0.61206,0.7214 0.85157,0.003 0.16377,-0.49129 0.10551,-1.0855 -0.12946,-1.32047 l 0,3e-5 z m -3.96274,-1.95927 c 0,-0.58336 -0.3182,-1.06066 -0.70711,-1.06066 -0.38891,0 -0.70711,0.4773 -0.70711,1.06066 0,0.58336 0.3182,1.06066 0.70711,1.06066 0.38891,0 0.70711,-0.4773 0.70711,-1.06066 z m -4.24264,-2.43314 c 0,-0.36596 -0.3182,-0.86204 -0.70711,-1.1024 -0.38891,-0.24036 -0.70711,0.0591 -0.70711,0.66538 0,0.60631 0.3182,1.10239 0.70711,1.10239 0.38891,0 0.70711,-0.29942 0.70711,-0.66537 z m -4.52254,-3.38576 c -0.71879,-0.71878 -1.31186,0.36337 -0.72211,1.31761 0.4455,0.72083 0.61206,0.72139 0.85157,0.003 0.16376,-0.49129 0.10551,-1.0855 -0.12946,-1.32046 l 0,3e-5 z m -3.96275,-1.95928 c 0,-0.58336 -0.31819,-1.06066 -0.7071,-1.06066 -0.38891,0 -0.70711,0.4773 -0.70711,1.06066 0,0.58337 0.3182,1.06066 0.70711,1.06066 0.38891,0 0.7071,-0.47729 0.7071,-1.06066 z m -4.24264,-2.43314 c 0,-1.18541 -1.25408,-1.47894 -1.67148,-0.39122 -0.24628,0.64181 0.002,1.0566 0.63301,1.0566 0.57116,0 1.03847,-0.29942 1.03847,-0.66538 z m -4.24264,-2.5166 c 0,-0.58337 -0.29941,-1.06066 -0.66537,-1.06066 -0.89165,0 -1.53025,1.10421 -0.96532,1.66914 0.79634,0.79633 1.63069,0.48499 1.63069,-0.60848 z m -4.24264,-2.82843 c 0,-0.58336 -0.29941,-1.06066 -0.66537,-1.06066 -0.89165,0 -1.53025,1.10421 -0.96532,1.66914 0.79633,0.79633 1.63069,0.485 1.63069,-0.60848 z m -4.37817,-2.52791 c -0.13936,-0.41807 -0.55566,-0.76014 -0.92513,-0.76014 -0.36946,0 -0.78577,0.34207 -0.92513,0.76014 -0.13936,0.41808 0.27695,0.76014 0.92513,0.76014 0.64819,0 1.06449,-0.34206 0.92513,-0.76014 z m -4.28398,-3.18797 c -0.67384,-0.67384 -2.0248,0.41762 -1.52262,1.23016 0.29849,0.48295 0.694,0.47075 1.20183,-0.0371 0.41632,-0.41631 0.56067,-0.9532 0.32079,-1.19308 l 0,-2e-5 z m -4.06577,-2.0623 c 0,-0.58336 -0.29942,-1.06066 -0.66537,-1.06066 -0.89165,0 -1.53025,1.10422 -0.96532,1.66914 0.79633,0.79633 1.63069,0.485 1.63069,-0.60848 z m -4.37817,-2.5279 c -0.13936,-0.41808 -0.55567,-0.76014 -0.92513,-0.76014 -0.36946,0 -0.78577,0.34206 -0.92513,0.76014 -0.13936,0.41807 0.27695,0.76014 0.92513,0.76014 0.64818,0 1.06449,-0.34207 0.92513,-0.76014 z m -4.10711,-2.81713 c 0,-0.36596 -0.4773,-0.66537 -1.06066,-0.66537 -1.09348,0 -1.40481,0.83435 -0.60848,1.63069 0.56493,0.56493 1.66914,-0.0737 1.66914,-0.96532 z m -4.63352,-2.84709 c -0.22767,-0.36838 -0.71535,-0.4835 -1.08373,-0.25583 -0.36838,0.22767 -0.4835,0.71535 -0.25583,1.08373 0.22767,0.36838 0.71534,0.4835 1.08373,0.25583 0.36838,-0.22767 0.4835,-0.71535 0.25583,-1.08373 z m -3.98729,-2.11396 c -0.13936,-0.41807 -0.55567,-0.76014 -0.92513,-0.76014 -0.36947,0 -0.78577,0.34207 -0.92513,0.76014 -0.13937,0.41808 0.27694,0.76014 0.92513,0.76014 0.64818,0 1.06449,-0.34206 0.92513,-0.76014 z m -4.10711,-2.81712 c 0,-0.36596 -0.4773,-0.66538 -1.06066,-0.66538 -1.09348,0 -1.40481,0.83436 -0.60848,1.6307 0.56493,0.56493 1.66914,-0.0737 1.66914,-0.96532 z m -4.87635,-2.99614 c -0.90757,-0.90757 -1.82791,-0.20612 -1.15601,0.88104 0.26027,0.42112 0.79716,0.56548 1.19308,0.32078 0.48295,-0.29848 0.47076,-0.69399 -0.0371,-1.20182 l -2e-5,0 z m -4.26301,-2.10633 c -0.0875,-0.84549 -1.05733,-0.68175 -1.36118,0.22981 -0.15556,0.46669 0.099,0.72125 0.56569,0.56568 0.46669,-0.15556 0.82466,-0.51353 0.79549,-0.79549 z m -3.58856,-2.63398 c 0,-0.3889 -0.4773,-0.707102 -1.06067,-0.707102 -0.58336,0 -1.06066,0.318202 -1.06066,0.707102 0,0.38891 0.4773,0.70711 1.06066,0.70711 0.58337,0 1.06067,-0.3182 1.06067,-0.70711 z m -4.84369,-2.474869 c 0,-0.369463 -0.34206,-0.785773 -0.76014,-0.925129 -0.41807,-0.139364 -0.76014,0.276945 -0.76014,0.925129 0,0.648183 0.34207,1.064493 0.76014,0.925129 0.41808,-0.139357 0.76014,-0.555666 0.76014,-0.925129 z m -4.24264,-2.828427 c 0,-0.369464 -0.34206,-0.785773 -0.76014,-0.925129 -0.41807,-0.139364 -0.76014,0.276945 -0.76014,0.925129 0,0.648183 0.34207,1.064492 0.76014,0.925129 0.41808,-0.139357 0.76014,-0.555666 0.76014,-0.925129 z m -3.99515,-2.474874 c 0.24036,-0.388909 -0.059,-0.707107 -0.66537,-0.707107 -0.60632,0 -1.1024,0.318198 -1.1024,0.707107 0,0.388909 0.29942,0.707107 0.66538,0.707107 0.36595,0 0.86203,-0.318198 1.10239,-0.707107 z m -4.49013,-2.474874 c 0,-0.369463 -0.34206,-0.785772 -0.76014,-0.925129 -0.41808,-0.139363 -0.76014,0.276946 -0.76014,0.925129 0,0.648184 0.34206,1.064493 0.76014,0.925129 0.41808,-0.139356 0.76014,-0.555665 0.76014,-0.925129 z m -4.34871,-2.828427 c 0,-0.583363 -0.31819,-1.06066 -0.7071,-1.06066 -0.38891,0 -0.70711,0.477297 -0.70711,1.06066 0,0.583363 0.3182,1.06066 0.70711,1.06066 0.38891,0 0.7071,-0.477297 0.7071,-1.06066 z m -4.24264,-2.474874 c 0,-0.388908 -0.31819,-0.707106 -0.7071,-0.707106 -0.38891,0 -0.70711,0.318198 -0.70711,0.707106 0,0.388909 0.3182,0.707107 0.70711,0.707107 0.38891,0 0.7071,-0.318198 0.7071,-0.707107 z"
       id="path5085"
       inkscape:connector-curvature="0" />
    <text
       xml:space="preserve"
       style="font-size:14px;font-style:normal;font-variant:normal;font-weight:normal;font-stretch:normal;line-height:125%;letter-spacing:0px;word-spacing:0px;fill:#000000;fill-opacity:1;stroke:none;font-family:DejaVu Sans;-inkscape-font-specification:DejaVu Sans"
       x="118.79395"
       y="71.60508"
       id="text4852"
       sodipodi:linespacing="125%"><tspan
         sodipodi:role="line"
         id="tspan4854"
         x="118.79395"
         y="71.60508">solution space: no maximum</tspan><tspan
         sodipodi:role="line"
         x="118.79395"
         y="89.10508"
         id="tspan5046"> if c is not a positive</tspan><tspan
         sodipodi:role="line"
         x="118.79395"
         y="106.60508"
         id="tspan5077"> linear combination of</tspan><tspan
         sodipodi:role="line"
         x="118.79395"
         y="124.10508"
         id="tspan5048"> with L<tspan
   style="font-size:65.00091553%;baseline-shift:sub"
   id="tspan5052">1</tspan> and L<tspan
   style="font-size:65.00091553%;baseline-shift:sub"
   id="tspan5050">2</tspan></tspan></text>
    <text
       xml:space="preserve"
       style="font-size:14px;font-style:normal;font-variant:normal;font-weight:normal;font-stretch:normal;line-height:125%;letter-spacing:0px;word-spacing:0px;fill:#000000;fill-opacity:1;stroke:none;font-family:DejaVu Sans;-inkscape-font-specification:DejaVu Sans"
       x="438.40622"
       y="47.563446"
       id="text5087"
       sodipodi:linespacing="125%"><tspan
         sodipodi:role="line"
         id="tspan5089"
         x="438.40622"
         y="47.563446">maximal value</tspan><tspan
         sodipodi:role="line"
         x="438.40622"
         y="65.063446"
         id="tspan5091">if there is a solution</tspan></text>
    <path
       sodipodi:type="arc"
       style="color:#000000;fill:none;stroke:#000000;stroke-width:0.61124939;stroke-miterlimit:4;stroke-dasharray:none;marker:none;marker-start:url(#Arrow1Mstart);marker-end:url(#Arrow1Mend);visibility:visible;display:inline;overflow:visible;enable-background:accumulate"
       id="path5095"
       sodipodi:cx="369.81683"
       sodipodi:cy="170.60002"
       sodipodi:rx="50.204582"
       sodipodi:ry="50.204582"
       d="m 417.5213,154.95446 a 50.204582,50.204582 0 0 1 -3.4865,39.42099"
       sodipodi:start="5.9662709"
       sodipodi:end="6.7765261"
       sodipodi:open="true"
       transform="matrix(2.0449919,0,0,2.0449919,-386.45559,-181.2509)" />
    <text
       xml:space="preserve"
       style="font-size:14px;font-style:normal;font-variant:normal;font-weight:normal;font-stretch:normal;line-height:125%;letter-spacing:0px;word-spacing:0px;fill:#000000;fill-opacity:1;stroke:none;font-family:DejaVu Sans;-inkscape-font-specification:DejaVu Sans"
       x="492.14633"
       y="162.11475"
       id="text5475"
       sodipodi:linespacing="125%"><tspan
         sodipodi:role="line"
         id="tspan5477"
         x="492.14633"
         y="162.11475">Domain where c</tspan><tspan
         sodipodi:role="line"
         x="492.14633"
         y="179.61475"
         id="tspan5479">must point for</tspan><tspan
         sodipodi:role="line"
         x="492.14633"
         y="197.11475"
         id="tspan5481">maximal solution</tspan><tspan
         sodipodi:role="line"
         x="492.14633"
         y="214.61475"
         id="tspan5483">to exist</tspan></text>
  </g>
</svg>
